<svg width="1204" height="1204" viewBox="0 0 1204 1204" fill="none" xmlns="http://www.w3.org/2000/svg">
<path d="M1.43576e-05 602C1.24721e-05 681.056 15.5712 759.337 45.8245 832.375C76.0779 905.413 120.421 971.777 176.322 1027.68C232.223 1083.58 298.587 1127.92 371.625 1158.18C444.663 1188.43 522.944 1204 602 1204C681.056 1204 759.337 1188.43 832.375 1158.18C905.413 1127.92 971.777 1083.58 1027.68 1027.68C1083.58 971.777 1127.92 905.413 1158.18 832.375C1188.43 759.337 1204 681.056 1204 602L602 602L1.43576e-05 602Z" fill="#236668"/>
<path d="M0 602C0 522.944 15.5712 444.663 45.8245 371.625C76.0779 298.587 120.421 232.223 176.322 176.322C232.223 120.421 298.587 76.0778 371.625 45.8245C444.663 15.5712 522.944 -3.45564e-06 602 0C681.056 3.45564e-06 759.337 15.5712 832.375 45.8245C905.413 76.0779 971.777 120.421 1027.68 176.322C1083.58 232.223 1127.92 298.587 1158.18 371.625C1188.43 444.663 1204 522.944 1204 602L602 602H0Z" fill="#FDCC61"/>
<path d="M0 602C0 562.349 7.7856 523.087 22.9123 486.455C38.0389 449.823 60.2104 416.538 88.1609 388.502C116.111 360.465 149.293 338.224 185.812 323.051C222.331 307.877 261.472 300.068 301 300.068C340.528 300.068 379.669 307.877 416.188 323.051C452.707 338.224 485.889 360.465 513.839 388.502C541.79 416.538 563.961 449.823 579.088 486.455C594.214 523.087 602 562.349 602 602L301 602H0Z" fill="#D97BE7"/>
<path d="M1204 602C1204 641.65 1196.21 680.912 1181.09 717.545C1165.96 754.177 1143.79 787.461 1115.84 815.498C1087.89 843.535 1054.71 865.775 1018.19 880.949C981.669 896.122 942.528 903.932 903 903.932C863.472 903.932 824.331 896.122 787.812 880.949C751.293 865.775 718.111 843.535 690.161 815.498C662.21 787.461 640.039 754.177 624.912 717.544C609.786 680.912 602 641.65 602 602L903 602L1204 602Z" fill="#5CBFC2"/>
</svg>
