<svg width="1324" height="662" viewBox="0 0 1324 662" fill="none" xmlns="http://www.w3.org/2000/svg">
<path d="M0 662C0 575.065 17.1231 488.981 50.3918 408.664C83.6604 328.346 132.423 255.368 193.895 193.895C255.368 132.423 328.346 83.6604 408.664 50.3918C488.981 17.1232 575.065 2.67175e-05 662 3.05176e-05C748.935 3.43176e-05 835.019 17.1232 915.336 50.3918C995.654 83.6604 1068.63 132.423 1130.1 193.895C1191.58 255.368 1240.34 328.346 1273.61 408.664C1306.88 488.981 1324 575.065 1324 662L662 662H0Z" fill="#FDCC61"/>
<path d="M0 662C0 618.398 8.56156 575.222 25.1959 534.939C41.8302 494.656 66.2115 458.054 96.9477 427.223C127.684 396.391 164.173 371.934 204.332 355.249C244.491 338.563 287.532 329.975 331 329.975C374.468 329.975 417.509 338.563 457.668 355.249C497.827 371.935 534.316 396.391 565.052 427.223C595.789 458.054 620.17 494.656 636.804 534.939C653.438 575.222 662 618.398 662 662H0Z" fill="#D97BE7"/>
</svg>
