<svg width="306" height="406" viewBox="0 0 306 406" fill="none" xmlns="http://www.w3.org/2000/svg">
<g clip-path="url(#clip0_310_1009)">
<path d="M166.359 79.4898C178.76 49.3953 192.539 42.4931 204.116 40.5619C220.925 32.2756 243.25 33.6561 252.895 35.0365C262.54 36.417 280.319 46.0837 285.277 54.7794C290.235 63.4752 296.85 68.0331 301.815 84.1855C306.781 100.338 305.949 109.863 305.949 109.863C293.545 108.207 291.067 100.751 285.277 97.4392C279.487 94.1276 272.876 90.3993 266.262 91.6421C259.647 92.8848 250.551 85.8449 241.872 92.8848C233.192 99.9247 223.269 101.171 212.108 97.4429C200.947 93.7146 179.035 108.624 169.527 101.997C165.806 86.2544 166.359 79.4898 166.359 79.4898Z" fill="#236668"/>
<path d="M153.391 22.6415C149.362 4.52544 144.436 4.65948 133.478 4.5073C122.52 4.35513 118.593 -3.86955 106.807 2.27906C95.0205 8.42766 85.5236 5.17761 81.1006 13.1197C98.2537 11.453 96.0006 21.9785 108.485 21.0329C120.969 20.0872 127.193 34.504 135.008 34.2395C142.824 33.975 154.002 25.3988 153.391 22.6415Z" fill="#236668"/>
<path d="M157.04 29.9786C163.655 10.3733 177.437 5.1305 186.529 5.9566C206.373 0.985539 218.499 10.9276 220.163 11.203C241.659 20.5908 243.308 35.2249 245.243 38.2612C247.178 41.2975 244.693 41.8519 239.182 42.4026C233.67 42.9533 232.014 42.1272 222.644 38.5366C213.273 34.946 205.932 37.4497 199.541 41.8519C193.151 46.2541 175.792 49.0657 168.078 40.9025C160.364 32.7394 157.04 29.9786 157.04 29.9786Z" fill="#5CBFC2"/>
<path d="M120.748 39.4569C86.0295 27.0292 70.3121 30.7612 49.6438 45.6671C28.9754 60.573 26.0786 82.5297 27.3191 93.711C28.5595 104.892 30.6282 106.552 22.3608 116.077C14.0935 125.603 14.0899 143.411 18.6394 157.907C23.189 172.404 24.4258 173.23 22.7731 188.969C21.1204 204.708 23.5977 216.716 34.3459 224.585C45.0942 232.455 47.1628 241.154 47.1628 241.154C56.6706 228.314 53.3652 219.201 63.6975 211.748C74.0299 204.295 87.2627 205.951 101.732 188.969C116.202 171.987 117.027 158.733 118.679 147.965C120.332 137.197 139.351 132.642 152.993 126.845C166.634 121.048 172.837 105.722 172.837 90.8124C172.837 75.9028 157.126 56.4353 146.798 49.8084C136.469 43.1816 129.695 42.4243 120.748 39.4569Z" fill="#5CBFC2"/>
<path d="M147.723 251.01L147.206 247.466C147.174 247.241 143.832 224.694 137.322 207.299L138.621 206.81C143.637 220.216 146.783 236.614 148.002 243.712C151.564 226.542 151.618 207.259 151.618 207.053H153.007C153.007 207.274 152.956 229.433 148.577 247.528L147.723 251.01Z" fill="#236668"/>
<path d="M225.03 360.579H89.3029C88.1458 360.58 87.0018 360.335 85.9457 359.861C84.8897 359.388 83.9456 358.696 83.1752 357.831C82.4048 356.966 81.8256 355.948 81.4755 354.843C81.1255 353.738 81.0125 352.571 81.144 351.42L94.2141 236.883H220.101L233.171 351.42C233.302 352.57 233.189 353.735 232.84 354.838C232.491 355.941 231.913 356.958 231.145 357.823C230.376 358.687 229.435 359.38 228.381 359.855C227.328 360.33 226.186 360.577 225.03 360.579Z" fill="#D97BE7"/>
<path d="M140.729 122.012C102.145 141.893 104.351 175.023 114.271 194.904C124.191 214.784 147.905 212.024 154.508 217.545C161.112 223.067 155.058 245.709 160.57 254.546C166.081 263.383 190.337 274.977 206.861 277.184C223.385 279.39 237.175 300.372 231.113 315.84C269.698 302.035 281.271 288.782 276.862 265.589C272.454 242.397 262.53 237.977 274.106 221.411C285.683 204.846 286.232 188.277 275.759 172.817C265.286 157.356 268.595 149.07 271.9 133.056C275.206 117.041 243.055 99.1856 214.759 102.041C186.464 104.896 160.009 115.939 157.257 117.595C150.65 120.36 140.729 122.012 140.729 122.012Z" fill="#236668"/>
<path d="M42.6379 324.816C22.1613 313.453 15.4961 307.511 29.152 285C32.9493 295.268 47.0392 306.812 42.6379 324.816Z" fill="#236668"/>
<path d="M51.6406 336.249C41.0225 318.713 39.8544 311.945 14 317.601C25.6235 333.927 36.5959 340.195 51.6406 336.249Z" fill="#236668"/>
<path d="M55.1252 238C51.8992 257.076 55.8159 265.334 64.2388 269.076C72.6616 272.819 75.6814 275.026 75.6814 275.026C72.922 251.062 58.0835 242.417 55.1252 238Z" fill="#236668"/>
<path d="M93.0271 237.553C92.5786 245.162 93.5189 257.194 85.2986 264.934C77.0783 272.673 74.8578 273.622 74.8578 273.622C72.4455 261.173 73.0821 251.274 78.496 244.72C83.9099 238.165 88.181 239.564 93.0271 237.553Z" fill="#236668"/>
<path d="M77.6769 282.781C72.6934 293.65 58.6215 294.929 52.723 290.39C46.8245 285.85 44.7848 280.176 44 279.726C53.3414 279.69 57.2545 274.328 66.1258 275.071C74.9971 275.813 77.6769 282.781 77.6769 282.781Z" fill="#236668"/>
<path d="M115.135 267.496C109.954 272.783 108.265 284.326 97.6969 288.149C87.1286 291.973 79.7719 288.989 76.9999 290.224C83.6492 284.445 84.1298 277.386 92.0577 271.613C99.9857 265.84 106.522 270.485 115.135 267.496Z" fill="#236668"/>
<path d="M77 325.805C83.6037 321.094 81.4917 311.475 91.2165 302.388C100.941 293.301 111.704 293 111.704 293C109.042 307.381 103.422 317.497 93.7047 320.718C83.9871 323.939 82.2512 323.642 77 325.805Z" fill="#236668"/>
<path d="M77.0896 316.064C78.3446 300.542 69.9398 292.452 57.1446 290.499C55.7486 307.401 66.6632 314.361 77.0896 316.064Z" fill="#236668"/>
<path d="M45.8803 337.489C65.5446 325.138 56.7675 303.291 61.3269 294.877C40.1964 304.343 36.9859 316.462 45.8803 337.489Z" fill="#236668"/>
<path d="M74.5 273C77.1667 277.167 80.9 297.6 74.5 346" stroke="#236668"/>
<path d="M86.5503 406H40.1252C36.9893 406.007 33.8985 405.252 31.1172 403.801C28.3359 402.349 25.947 400.245 24.1547 397.667C9.58378 376.583 8.60372 354.837 24.9322 332.086H100.915C118.144 354.347 119.508 376.587 101.678 398.797C99.8537 401.053 97.5479 402.872 94.93 404.118C92.3121 405.365 89.4488 406.008 86.5503 406Z" fill="#FDCC61"/>
</g>
<defs>
<clipPath id="clip0_310_1009">
<rect width="306" height="406" fill="white"/>
</clipPath>
</defs>
</svg>
