<svg width="587" height="956" viewBox="0 0 587 956" fill="none" xmlns="http://www.w3.org/2000/svg">
<circle cx="271.256" cy="236.218" r="236.218" fill="#FDCC61"/>
<circle cx="271.256" cy="236.218" r="236.218" fill="white" fill-opacity="0.8"/>
<path d="M110.803 492.398C110.803 477.896 107.902 446.714 96.2996 438.013C81.7967 427.135 12.9055 392.329 4.93067 341.568C3.56356 332.866 -5.44533 307.486 4.93067 262.527C9.28189 243.673 12.7627 209.446 9.28204 194.363C17.5005 204.032 30.3116 226.27 44.0894 242.223C56.4739 260.505 75.573 276.389 88.5148 301.967C86.4958 264.092 86.858 223.662 91.2232 189.287C93.9886 167.51 106.452 126.199 111.528 107.346C116.604 116.047 147.061 168.983 169.54 219.743C192.019 270.504 192.745 355.346 169.54 406.831C146.334 458.317 135.457 492.398 128.206 492.398C127.34 483.303 129.772 456.95 116.208 436.778C117.746 455.015 118.521 473.879 118.054 492.398H110.803Z" fill="#FDCC61"/>
<circle cx="123.855" cy="647.58" r="101.521" fill="#5CBFC2"/>
<circle cx="123.855" cy="802.761" r="101.521" fill="#5CBFC2"/>
<rect x="22.3345" y="638.878" width="203.041" height="163.883" fill="#5CBFC2"/>
<rect x="90.498" y="485.147" width="65.2632" height="84.117" fill="#5CBFC2"/>
<path d="M341.456 719.076C326.7 649.856 321.902 403.56 341.456 397.121C355.707 400.34 366.568 620.558 341.456 719.076Z" fill="#D97BE7"/>
<path d="M341.862 722.019C345.747 651.809 398.505 411.196 415.943 408.703C426.832 414.586 385.024 630.99 341.862 722.019Z" fill="#D97BE7"/>
<path d="M342.988 713.91C364.855 655.633 472.259 465.633 487.276 467.825C487.276 496.927 402.721 647.743 342.988 713.91Z" fill="#D97BE7"/>
<path d="M343.556 710.64C375.607 666.349 517.741 528.442 534.578 521.879C510.497 571.101 414.068 675.869 343.556 710.64Z" fill="#D97BE7"/>
<path d="M335.795 717.064C377.915 682.981 542.722 588.905 553.192 597.664C555.479 606.981 410.18 694.843 335.795 717.064Z" fill="#D97BE7"/>
<path d="M324.66 718.879C373.446 694.205 556.523 644.205 565.223 658.488C565.652 670.382 403.266 720.294 324.66 718.879Z" fill="#D97BE7"/>
<path d="M343.639 723.024C339.649 650.928 285.474 403.853 267.568 401.292C256.386 407.333 299.318 629.55 343.639 723.024Z" fill="#D97BE7"/>
<path d="M342.481 714.697C320.027 654.855 209.738 459.752 194.318 462.002C194.318 491.886 281.144 646.753 342.481 714.697Z" fill="#D97BE7"/>
<path d="M341.898 711.34C308.986 665.859 163.035 524.248 145.745 517.508C170.473 568.052 269.492 675.634 341.898 711.34Z" fill="#D97BE7"/>
<path d="M349.869 717.936C306.617 682.937 137.384 586.335 126.633 595.328C124.284 604.896 273.485 695.117 349.869 717.936Z" fill="#D97BE7"/>
<path d="M361.303 719.8C311.206 694.463 123.212 643.12 114.278 657.786C113.838 670 280.585 721.253 361.303 719.8Z" fill="#D97BE7"/>
<path d="M586.213 709.511C586.213 774.884 560.244 837.58 514.018 883.805C467.792 930.031 405.097 956 339.724 956C274.351 956 211.656 930.031 165.43 883.805C119.205 837.58 93.2354 774.884 93.2354 709.511L339.724 709.511H586.213Z" fill="#FDCC61"/>
</svg>
