<svg width="1118" height="1069" viewBox="0 0 1118 1069" fill="none" xmlns="http://www.w3.org/2000/svg">
<circle cx="738" cy="380" r="380" fill="#FDCC61"/>
<path d="M389.681 590.806C379.672 609.399 361.609 663.216 369.433 729.738L356.755 731.475C358.591 700.368 357.804 632.308 339.961 608.921" stroke="#236668" stroke-width="6"/>
<path d="M528 877C528 794.157 460.843 727 378 727H346C263.157 727 196 794.157 196 877V1026H528V877Z" fill="#FDCC61"/>
<rect width="121" height="112" transform="matrix(-1 0 0 1 423 670)" fill="#FDCC61"/>
<path d="M466.47 163.09C403.373 206.393 386.533 181.133 386 163.09C389.197 122.36 415.31 114.857 429.699 114.857C444.088 114.857 453.147 114.857 473.398 108.426C493.649 101.995 492.583 119.681 515.498 114.857C533.831 110.999 550.138 126.469 556 134.686C543.743 133.615 542.677 135.222 526.69 140.046C510.702 144.869 506.972 155.587 488.853 154.516C474.357 153.658 467.891 159.875 466.47 163.09Z" fill="#236668"/>
<path d="M224 163.128C231.83 159.029 254.537 153.29 282.725 163.128C317.96 175.425 362.271 163.128 389.498 227.287M492 134.791C477.764 133.365 446.835 132.866 437.012 142.276C410.497 155.643 357.573 195.101 358 246" stroke="#236668" stroke-width="6"/>
<path d="M303.846 128.46C344.89 119.781 363.24 165.172 367.285 188.952C332.692 234.103 280.359 218.5 264.407 208.47C248.455 198.439 256.048 189.17 220.731 188.028C185.414 186.885 169.355 195.108 158.368 188.377C147.38 181.647 159.872 176.207 196.462 140.974C225.734 112.787 280.248 120.887 303.846 128.46Z" fill="#5CBFC2"/>
<path d="M242.36 214.088C82.9427 143.219 15.0268 286.664 0.996033 367.245C-6.043 397.129 25.5055 367.245 55.343 351.235C85.1805 335.226 107.559 325.087 156.045 337.36C204.531 349.634 182.153 327.221 242.36 351.235C290.527 370.447 316.066 359.24 322.815 351.235C350.095 273.963 280.545 227.607 242.36 214.088Z" fill="#236668"/>
<path d="M398.419 429.056C234.474 398.167 285.736 243.24 411.476 221.521C643.611 110.032 639.367 287.16 654.251 310.809C691.006 369.209 683.268 405.406 654.251 443.535C631.037 474.038 644.579 503.543 654.251 514.483C677.851 609.08 606.696 646.243 568.168 653C573.487 618.25 558.979 593.153 531.897 565.642C504.814 538.132 409.542 534.754 422.116 483.594C432.175 442.666 410.509 430.182 398.419 429.056Z" fill="#5CBFC2"/>
<path d="M346.078 621.609C526.673 587.486 470.204 416.338 331.694 392.345C75.9831 269.182 80.6584 464.856 64.2627 490.982C23.7751 555.495 32.2988 595.483 64.2627 637.604C89.8337 671.3 74.9173 703.895 64.2627 715.98C38.2654 820.481 116.648 861.536 159.089 869C153.229 830.612 169.211 802.887 199.044 772.496C228.877 742.105 333.825 738.373 319.974 681.857C308.893 636.644 332.759 622.853 346.078 621.609Z" fill="#236668"/>
<path d="M549.886 891.032C560.539 888.368 565.422 908.241 566.531 918.51C568.196 903.245 570.526 871.215 566.531 865.22C561.538 857.726 545.724 856.061 535.737 831.081C527.747 811.097 507.994 801.105 499.116 798.607C493.013 796.664 482.47 793.944 489.129 798.607C497.451 804.436 502.445 810.264 503.277 822.754C504.11 835.244 496.619 852.73 514.929 861.056C533.24 869.383 528.246 873.546 532.408 878.542C536.569 883.538 536.569 894.363 549.886 891.032Z" fill="#236668"/>
<path d="M564.867 931V814.428C565.699 808.599 564.201 795.11 551.55 787.782C535.737 778.623 536.569 765.301 532.408 754.476C528.246 743.651 521.588 746.149 511.6 734.492C501.613 722.835 518.259 712.843 514.93 702.018C511.6 691.194 486.632 687.03 508.271 633.74C509.936 626.801 517.093 628.744 532.408 692.026C547.722 755.309 569.028 782.786 569.028 795.276L571.525 835.244C572.358 818.591 577.684 777.291 592.333 745.317C606.981 713.343 647.819 682.034 666.406 670.377C668.903 678.704 663.077 694.524 657.251 707.014C651.425 719.504 637.276 720.337 634.779 734.492C632.282 748.647 631.45 757.807 625.624 761.137C620.963 763.802 618.688 768.354 618.134 770.296C613.972 788.615 609.811 787.782 592.333 797.774C578.35 805.768 574.3 826.085 574.022 835.244V856.893C583.177 843.571 583.177 846.069 592.333 839.407C601.488 832.746 597.326 836.909 609.811 807.766C622.295 778.623 644.767 774.46 652.257 770.296C659.748 766.133 665.574 768.631 659.748 774.46C653.922 780.288 648.928 787.782 648.096 806.101C647.264 824.419 634.779 840.24 622.295 851.897C609.811 863.554 612.307 871.881 610.643 881.04C608.978 890.2 585.674 882.706 579.848 887.702C575.187 891.698 574.022 918.233 574.022 931H569.028H564.867Z" fill="#236668"/>
<path d="M732 914.5C732 934.789 728.004 954.88 720.239 973.625C712.475 992.369 701.095 1009.4 686.748 1023.75C672.401 1038.09 655.369 1049.48 636.625 1057.24C617.88 1065 597.789 1069 577.5 1069C557.211 1069 537.12 1065 518.375 1057.24C499.631 1049.48 482.599 1038.09 468.252 1023.75C453.905 1009.4 442.525 992.369 434.761 973.625C426.996 954.88 423 934.789 423 914.5L577.5 914.5H732Z" fill="#D97BE7"/>
</svg>
