<svg width="684" height="700" viewBox="0 0 684 700" fill="none" xmlns="http://www.w3.org/2000/svg">
<circle cx="201" cy="162" r="162" fill="#FDCC61"/>
<path d="M23.9701 314.433C15.4662 457.665 49.7457 522.653 67.9485 537.243H123.182C127.017 461.208 58.6387 357.022 23.9701 314.433Z" fill="#FDCC61"/>
<path d="M279.396 312.349C288.056 458.394 253.148 524.659 234.611 539.535H178.364C174.458 462.007 244.091 355.774 279.396 312.349Z" fill="#FDCC61"/>
<path d="M131.102 453.455C117.262 371.084 142.705 307.694 157.156 286.295C174.455 380.713 171.12 436.78 161.741 453.455C154.238 466.794 138.189 459.013 131.102 453.455Z" fill="#236668"/>
<path d="M109.216 301.093C86.8727 368.791 109.216 483.677 123.181 532.657H182.375C217.557 415.604 201.064 314.78 188.419 279C186.418 317.851 158.683 411.908 145.066 454.08C133.894 442.408 116.511 347.226 109.216 301.093Z" fill="#5CBFC2"/>
<path d="M10.0046 436.78C29.6802 493.806 68.7814 524.459 85.8725 532.657L157.155 536.617C142.815 458.915 96.5718 414.201 75.2427 401.556C88.0818 421.231 92.9591 470.476 93.7928 492.639C48.4388 435.113 12.3668 421.148 0 421.357C8.00365 428.193 10.0046 434.488 10.0046 436.78Z" fill="#D97BE7"/>
<path d="M293.881 437.016C273.788 495.098 233.857 526.318 216.403 534.668L143.608 538.702C158.252 459.561 205.477 414.018 227.258 401.139C214.147 421.179 209.166 471.336 208.315 493.909C254.631 435.317 291.468 421.094 304.098 421.306C295.924 428.269 293.881 434.681 293.881 437.016Z" fill="#D97BE7"/>
<path d="M291.8 512.44C291.8 530.833 288.177 549.047 281.138 566.04C274.099 583.033 263.782 598.474 250.776 611.48C237.77 624.486 222.329 634.803 205.336 641.842C188.343 648.881 170.129 652.504 151.736 652.504C133.342 652.504 115.129 648.881 98.1356 641.842C81.1423 634.803 65.7018 624.486 52.6956 611.48C39.6895 598.474 29.3725 583.033 22.3336 566.04C15.2947 549.047 11.6719 530.833 11.6719 512.44L151.736 512.44H291.8Z" fill="#236668"/>
<path d="M256.535 184.006C243.573 402.318 295.822 501.372 323.566 523.61H407.752C413.598 407.719 309.376 248.92 256.535 184.006Z" fill="#236668"/>
<path d="M645.852 180.829C659.051 403.43 605.844 504.43 577.591 527.105H491.86C485.907 408.937 592.041 247.018 645.852 180.829Z" fill="#236668"/>
<path d="M419.823 395.901C398.729 270.353 437.507 173.734 459.533 141.119C485.901 285.03 480.818 370.486 466.522 395.901C455.086 416.233 430.624 404.373 419.823 395.901Z" fill="#236668"/>
<path d="M386.466 163.674C352.411 266.858 386.466 441.965 407.751 516.621H497.973C551.598 338.21 526.459 184.536 507.186 130C504.136 189.216 461.863 332.576 441.108 396.854C424.08 379.064 397.585 233.988 386.466 163.674Z" fill="#FDCC61"/>
<path d="M235.249 370.486C265.238 457.405 324.836 504.125 350.886 516.621L459.533 522.657C437.677 404.224 367.193 336.071 334.684 316.798C354.253 346.787 361.687 421.845 362.958 455.626C293.83 367.945 238.849 346.66 220 346.978C232.199 357.398 235.249 366.992 235.249 370.486Z" fill="#5CBFC2"/>
<path d="M667.928 370.845C637.302 459.373 576.44 506.959 549.837 519.686L438.884 525.834C461.204 405.208 533.183 335.792 566.383 316.163C546.398 346.707 538.807 423.155 537.509 457.561C608.104 368.257 664.251 346.578 683.5 346.901C671.042 357.514 667.928 367.286 667.928 370.845Z" fill="#5CBFC2"/>
<path d="M664.757 485.806C664.757 513.841 659.235 541.601 648.506 567.502C637.778 593.403 622.053 616.937 602.229 636.761C582.405 656.585 558.871 672.31 532.97 683.039C507.069 693.767 479.308 699.289 451.273 699.289C423.238 699.289 395.478 693.767 369.577 683.039C343.676 672.31 320.142 656.585 300.318 636.761C280.494 616.937 264.769 593.403 254.04 567.502C243.312 541.601 237.79 513.841 237.79 485.806L451.273 485.806H664.757Z" fill="#FDCC61"/>
</svg>
