<svg width="273" height="95" viewBox="0 0 273 95" fill="none" xmlns="http://www.w3.org/2000/svg">
<path d="M111.483 48.1729V46.4325C112.643 46.402 113.574 46.3257 114.276 46.2035C115.009 46.0509 115.574 45.7913 115.971 45.425C116.368 45.028 116.627 44.509 116.749 43.8678C116.902 43.1961 116.978 42.3107 116.978 41.2115V19.8695C116.978 18.8009 116.917 17.946 116.795 17.3048C116.704 16.6331 116.49 16.1141 116.154 15.7477C115.849 15.3508 115.391 15.0912 114.78 14.9691C114.17 14.8164 113.376 14.7096 112.399 14.6485V12.9082H128.474C131.222 12.9082 133.756 13.3662 136.076 14.2821C138.427 15.1981 140.442 16.4652 142.122 18.0834C143.832 19.7016 145.16 21.6251 146.106 23.854C147.053 26.0828 147.526 28.5101 147.526 31.1359C147.526 33.6395 147.083 35.9447 146.198 38.0514C145.312 40.1276 144.061 41.9138 142.442 43.4098C140.855 44.9059 138.946 46.0814 136.718 46.9363C134.489 47.7607 132.046 48.1729 129.39 48.1729H111.483ZM122.566 15.1523C122.047 15.1523 121.787 15.4118 121.787 15.9309V40.7077C121.787 44.1884 124.062 45.9287 128.611 45.9287C132.794 45.9287 136 44.6922 138.229 42.2191C140.458 39.7154 141.572 36.0516 141.572 31.2275C141.572 28.6933 141.267 26.4339 140.656 24.4494C140.046 22.4648 139.16 20.7855 138 19.4115C136.87 18.0376 135.496 16.9842 133.878 16.2515C132.26 15.5187 130.428 15.1523 128.382 15.1523H122.566ZM161.073 40.8909C161.073 42.1427 161.103 43.135 161.164 43.8678C161.225 44.6006 161.378 45.1654 161.622 45.5624C161.897 45.9287 162.279 46.173 162.767 46.2951C163.256 46.4173 163.943 46.5088 164.828 46.5699V48.1729H152.646V46.5699C153.531 46.5394 154.233 46.463 154.752 46.3409C155.271 46.1883 155.668 45.9287 155.943 45.5624C156.218 45.196 156.386 44.6769 156.447 44.0052C156.539 43.303 156.584 42.3717 156.584 41.2115V35.8531C156.584 33.7769 156.554 32.1587 156.493 30.9985C156.462 29.8383 156.31 28.9834 156.035 28.4338C155.79 27.8842 155.394 27.5636 154.844 27.472C154.294 27.3499 153.531 27.2888 152.554 27.2888V25.6859L160.569 23.9456L161.21 29.6246H161.393C161.79 28.7086 162.279 27.869 162.859 27.1056C163.469 26.3423 164.126 25.7012 164.828 25.1821C165.53 24.6325 166.263 24.2051 167.026 23.8998C167.79 23.5944 168.568 23.4418 169.362 23.4418C170.339 23.4418 171.102 23.686 171.652 24.1746C172.232 24.6325 172.522 25.2585 172.522 26.0523C172.522 26.7851 172.293 27.3652 171.835 27.7926C171.377 28.1895 170.721 28.388 169.866 28.388C169.377 28.388 168.965 28.3269 168.629 28.2048C168.293 28.0827 167.988 27.9605 167.713 27.8384C167.469 27.6858 167.225 27.5484 166.981 27.4262C166.767 27.3041 166.523 27.243 166.248 27.243C165.423 27.243 164.599 27.7774 163.775 28.846C162.95 29.8841 162.309 31.2122 161.851 32.8304C161.607 33.7159 161.408 34.7234 161.256 35.8531C161.134 36.9523 161.073 38.1125 161.073 39.3338V40.8909ZM189.402 34.6166C187.661 35.2883 186.18 35.9447 184.959 36.5859C183.768 37.2271 182.807 37.8682 182.074 38.5094C181.341 39.1506 180.807 39.7918 180.471 40.4329C180.166 41.0741 180.013 41.7306 180.013 42.4023C180.013 43.4098 180.349 44.2342 181.021 44.8754C181.692 45.5166 182.578 45.8371 183.677 45.8371C184.471 45.8371 185.203 45.6387 185.875 45.2418C186.577 44.8448 187.188 44.3105 187.707 43.6388C188.226 42.9366 188.638 42.1275 188.944 41.2115C189.249 40.265 189.402 39.2727 189.402 38.2346V34.6166ZM189.402 32.6472V30.7695C189.402 27.0446 187.814 25.1821 184.639 25.1821C184.12 25.1821 183.677 25.2279 183.31 25.3195C182.944 25.4111 182.639 25.5638 182.394 25.7775C182.15 25.9912 181.921 26.2965 181.708 26.6935C181.524 27.0904 181.341 27.5789 181.158 28.159C180.822 29.0444 180.486 29.6398 180.15 29.9451C179.845 30.2199 179.387 30.3573 178.776 30.3573C177.25 30.3573 176.487 29.594 176.487 28.0674C176.487 26.6019 177.265 25.4722 178.822 24.6783C180.379 23.854 182.593 23.4418 185.463 23.4418C188.516 23.4418 190.684 23.9914 191.966 25.0905C193.249 26.1592 193.89 27.9911 193.89 30.5863V40.8451C193.89 44.3258 194.577 46.0661 195.951 46.0661C196.378 46.0661 196.79 46.0203 197.187 45.9287C197.584 45.8066 197.92 45.5166 198.195 45.0586L198.836 46.1577C198.47 46.86 197.798 47.4553 196.821 47.9439C195.844 48.4018 194.821 48.6308 193.752 48.6308C192.409 48.6308 191.401 48.2034 190.73 47.3485C190.089 46.4936 189.768 45.2876 189.768 43.7304H189.539C188.745 45.2265 187.646 46.4173 186.242 47.3027C184.837 48.1576 183.28 48.585 181.57 48.585C179.647 48.585 178.135 48.0965 177.036 47.1195C175.937 46.1425 175.387 44.8296 175.387 43.1808C175.387 42.4481 175.509 41.7458 175.754 41.0741C176.029 40.4024 176.456 39.7612 177.036 39.1506C177.616 38.5399 178.38 37.9446 179.326 37.3645C180.273 36.7538 181.433 36.1432 182.807 35.5325L189.402 32.6472ZM212.013 38.3262C213.295 38.3262 214.287 37.7461 214.99 36.5859C215.722 35.4257 216.089 33.7922 216.089 31.6855C216.089 29.6093 215.722 28.0063 214.99 26.8767C214.287 25.7164 213.28 25.1363 211.967 25.1363C210.654 25.1363 209.601 25.7164 208.807 26.8767C208.044 28.0369 207.662 29.6246 207.662 31.6397C207.662 33.6548 208.059 35.273 208.853 36.4943C209.646 37.7156 210.7 38.3262 212.013 38.3262ZM209.494 43.6846C210.227 43.7457 210.898 43.8068 211.509 43.8678C212.12 43.9289 212.715 43.9899 213.295 44.051C213.906 44.1121 214.501 44.1884 215.081 44.28C215.692 44.3716 216.348 44.4632 217.051 44.5548C219.249 44.8906 221.004 45.7455 222.317 47.1195C223.661 48.4629 224.332 50.1574 224.332 52.2031C224.332 54.7678 223.31 56.7219 221.264 58.0653C219.249 59.4087 216.318 60.0804 212.471 60.0804C210.761 60.0804 209.189 59.9277 207.753 59.6224C206.349 59.3171 205.143 58.8744 204.135 58.2943C203.128 57.7447 202.334 57.073 201.754 56.2791C201.204 55.4853 200.93 54.6151 200.93 53.6686C200.93 53.0275 201.036 52.4321 201.25 51.8825C201.464 51.3329 201.754 50.8444 202.12 50.417C202.487 50.02 202.914 49.6995 203.403 49.4552C203.922 49.2109 204.456 49.0888 205.006 49.0888C206.044 49.0888 206.975 49.4094 207.799 50.0506C206.975 50.2338 206.303 50.6765 205.784 51.3787C205.265 52.1115 205.006 52.9359 205.006 53.8518C205.006 55.1953 205.662 56.2333 206.975 56.9661C208.318 57.6989 210.211 58.0653 212.654 58.0653C217.875 58.0653 220.485 56.4623 220.485 53.2565C220.485 52.0352 220.073 51.0123 219.249 50.188C218.424 49.3941 217.447 48.9209 216.318 48.7682C215.585 48.6766 214.822 48.5698 214.028 48.4476C213.265 48.356 212.501 48.2644 211.738 48.1729C211.005 48.0813 210.318 48.0049 209.677 47.9439C209.036 47.8828 208.517 47.8217 208.12 47.7607C206.41 47.5775 205.112 47.1195 204.227 46.3867C203.342 45.6539 202.899 44.6464 202.899 43.364C202.899 42.2954 203.342 41.3489 204.227 40.5245C205.112 39.7002 206.227 39.1811 207.57 38.9674V38.7842C206.899 38.5094 206.273 38.1278 205.693 37.6393C205.112 37.1202 204.609 36.5401 204.181 35.8989C203.784 35.2577 203.464 34.5708 203.219 33.838C202.975 33.0747 202.853 32.2961 202.853 31.5023C202.853 30.3421 203.067 29.2734 203.494 28.2964C203.952 27.3194 204.578 26.4797 205.372 25.7775C206.196 25.0447 207.158 24.4799 208.257 24.083C209.356 23.6555 210.562 23.4418 211.875 23.4418C213.219 23.4418 214.486 23.6555 215.677 24.083C216.867 24.4799 217.89 25.0753 218.745 25.8691C219.783 25.0142 220.699 24.4036 221.493 24.0372C222.287 23.6402 223.035 23.4418 223.737 23.4418C224.836 23.4418 225.706 23.7013 226.348 24.2204C227.019 24.7089 227.355 25.3806 227.355 26.2355C227.355 26.7545 227.172 27.1667 226.806 27.472C226.47 27.7774 226.042 27.93 225.523 27.93C225.096 27.93 224.745 27.8537 224.47 27.701C224.195 27.5484 223.936 27.3957 223.691 27.243C223.478 27.0599 223.249 26.8919 223.004 26.7393C222.76 26.5866 222.455 26.5103 222.088 26.5103C221.356 26.5103 220.608 26.7698 219.844 27.2888C220.577 28.4185 220.943 29.8383 220.943 31.5481C220.943 34.1433 220.134 36.189 218.516 37.685C216.898 39.1506 214.471 40.0055 211.234 40.2498C209.372 40.4024 208.074 40.6009 207.341 40.8451C206.609 41.0894 206.242 41.5321 206.242 42.1733C206.242 42.6618 206.517 43.0282 207.067 43.2724C207.616 43.4862 208.425 43.6236 209.494 43.6846ZM242.228 23.4418C243.968 23.4418 245.617 23.7624 247.174 24.4036C248.731 25.0142 250.09 25.8691 251.25 26.9683C252.441 28.0674 253.372 29.3803 254.044 30.9069C254.746 32.403 255.097 34.0517 255.097 35.8531C255.097 37.7156 254.746 39.4254 254.044 40.9825C253.372 42.5397 252.441 43.8831 251.25 45.0128C250.09 46.1425 248.731 47.0279 247.174 47.6691C245.617 48.3102 243.968 48.6308 242.228 48.6308C240.518 48.6308 238.885 48.3255 237.328 47.7149C235.801 47.0737 234.458 46.1883 233.297 45.0586C232.137 43.9289 231.221 42.5855 230.55 41.0283C229.878 39.4406 229.542 37.7156 229.542 35.8531C229.542 34.0517 229.878 32.3877 230.55 30.8611C231.221 29.3345 232.137 28.0216 233.297 26.9225C234.458 25.8233 235.801 24.9684 237.328 24.3578C238.885 23.7471 240.518 23.4418 242.228 23.4418ZM242.228 25.6401C241.098 25.6401 240.06 25.8844 239.114 26.3729C238.198 26.8614 237.404 27.5636 236.732 28.4796C236.091 29.365 235.587 30.4489 235.221 31.7313C234.885 32.9831 234.717 34.3723 234.717 35.8989C234.717 37.4866 234.885 38.9216 235.221 40.204C235.587 41.4863 236.091 42.5855 236.732 43.5014C237.404 44.3869 238.198 45.0738 239.114 45.5624C240.03 46.0509 241.068 46.2951 242.228 46.2951C243.388 46.2951 244.442 46.0509 245.388 45.5624C246.335 45.0738 247.144 44.3716 247.816 43.4556C248.487 42.5397 249.006 41.4405 249.373 40.1582C249.739 38.8758 249.922 37.4561 249.922 35.8989C249.922 34.3723 249.739 32.9831 249.373 31.7313C249.006 30.4795 248.487 29.4108 247.816 28.5254C247.144 27.6094 246.335 26.9072 245.388 26.4187C244.442 25.8996 243.388 25.6401 242.228 25.6401Z" fill="#236668"/>
<path d="M118.808 79.0182C119.175 79.5135 119.577 79.8624 120.012 80.065C120.447 80.2676 120.935 80.3689 121.475 80.3689C122.541 80.3689 123.359 79.99 123.929 79.2321C124.499 78.4742 124.785 77.3936 124.785 75.9903C124.785 75.2474 124.717 74.6096 124.582 74.0768C124.454 73.544 124.267 73.1088 124.019 72.7711C123.772 72.426 123.468 72.1746 123.107 72.017C122.747 71.8594 122.338 71.7806 121.881 71.7806C121.228 71.7806 120.654 71.9307 120.158 72.2309C119.671 72.531 119.22 72.955 118.808 73.5028V79.0182ZM118.706 72.1295C119.187 71.5367 119.742 71.0602 120.372 70.7C121.003 70.3399 121.723 70.1598 122.533 70.1598C123.194 70.1598 123.79 70.2873 124.323 70.5425C124.856 70.7901 125.31 71.1615 125.685 71.6568C126.06 72.1446 126.349 72.7524 126.552 73.4803C126.754 74.2081 126.856 75.0448 126.856 75.9903C126.856 76.8308 126.743 77.615 126.518 78.3428C126.293 79.0632 125.966 79.6898 125.539 80.2226C125.118 80.7479 124.601 81.1643 123.985 81.472C123.378 81.7722 122.691 81.9222 121.926 81.9222C121.228 81.9222 120.627 81.8059 120.125 81.5733C119.629 81.3332 119.19 81.003 118.808 80.5828V85.6254H116.793V70.3624H117.997C118.282 70.3624 118.459 70.5012 118.526 70.7788L118.706 72.1295ZM139.992 72.2421C139.902 72.4072 139.764 72.4897 139.576 72.4897C139.463 72.4897 139.336 72.4485 139.193 72.3659C139.051 72.2834 138.874 72.1933 138.664 72.0958C138.462 71.9907 138.218 71.8969 137.933 71.8144C137.647 71.7243 137.31 71.6793 136.92 71.6793C136.582 71.6793 136.278 71.7243 136.008 71.8144C135.738 71.8969 135.505 72.0132 135.31 72.1633C135.122 72.3134 134.976 72.4897 134.871 72.6923C134.773 72.8874 134.725 73.1013 134.725 73.3339C134.725 73.6266 134.807 73.8705 134.972 74.0656C135.145 74.2607 135.37 74.4295 135.648 74.5721C135.925 74.7147 136.24 74.8422 136.593 74.9548C136.946 75.0598 137.306 75.1762 137.674 75.3037C138.049 75.4238 138.413 75.5589 138.765 75.7089C139.118 75.859 139.433 76.0466 139.711 76.2717C139.989 76.4969 140.21 76.7745 140.375 77.1047C140.548 77.4274 140.634 77.8176 140.634 78.2753C140.634 78.8006 140.54 79.2883 140.353 79.7386C140.165 80.1813 139.887 80.5678 139.52 80.8979C139.152 81.2206 138.702 81.4757 138.169 81.6633C137.636 81.8509 137.021 81.9447 136.323 81.9447C135.528 81.9447 134.807 81.8172 134.162 81.562C133.516 81.2994 132.969 80.9655 132.518 80.5603L132.991 79.7949C133.051 79.6973 133.123 79.6223 133.205 79.5697C133.288 79.5172 133.393 79.4909 133.52 79.4909C133.655 79.4909 133.798 79.5435 133.948 79.6485C134.098 79.7536 134.278 79.8699 134.488 79.9975C134.706 80.125 134.968 80.2413 135.276 80.3464C135.584 80.4515 135.967 80.504 136.424 80.504C136.814 80.504 137.156 80.4552 137.449 80.3577C137.741 80.2526 137.985 80.1138 138.18 79.9412C138.375 79.7686 138.518 79.5697 138.608 79.3446C138.705 79.1195 138.754 78.8794 138.754 78.6242C138.754 78.3091 138.668 78.0502 138.495 77.8476C138.33 77.6375 138.109 77.4611 137.831 77.3185C137.554 77.1685 137.235 77.0409 136.874 76.9358C136.522 76.8233 136.158 76.707 135.783 76.5869C135.415 76.4668 135.051 76.3318 134.691 76.1817C134.338 76.0241 134.023 75.829 133.745 75.5964C133.468 75.3638 133.243 75.0786 133.07 74.7409C132.905 74.3957 132.822 73.9793 132.822 73.4915C132.822 73.0563 132.912 72.6398 133.092 72.2421C133.273 71.8369 133.535 71.4842 133.88 71.184C134.226 70.8764 134.65 70.6325 135.152 70.4524C135.655 70.2723 136.229 70.1823 136.874 70.1823C137.625 70.1823 138.296 70.3023 138.889 70.5425C139.49 70.7751 140.007 71.0978 140.443 71.5105L139.992 72.2421ZM149.146 70.3624V81.7646H147.143V70.3624H149.146ZM149.574 66.783C149.574 66.9781 149.533 67.1619 149.45 67.3345C149.375 67.4996 149.27 67.6497 149.135 67.7847C149.007 67.9123 148.853 68.0136 148.673 68.0887C148.501 68.1637 148.317 68.2012 148.122 68.2012C147.927 68.2012 147.743 68.1637 147.57 68.0887C147.405 68.0136 147.259 67.9123 147.131 67.7847C147.004 67.6497 146.902 67.4996 146.827 67.3345C146.752 67.1619 146.715 66.9781 146.715 66.783C146.715 66.5879 146.752 66.404 146.827 66.2314C146.902 66.0513 147.004 65.8975 147.131 65.7699C147.259 65.6349 147.405 65.5298 147.57 65.4548C147.743 65.3797 147.927 65.3422 148.122 65.3422C148.317 65.3422 148.501 65.3797 148.673 65.4548C148.853 65.5298 149.007 65.6349 149.135 65.7699C149.27 65.8975 149.375 66.0513 149.45 66.2314C149.533 66.404 149.574 66.5879 149.574 66.783ZM164.313 72.3884C164.253 72.471 164.193 72.5348 164.133 72.5798C164.073 72.6248 163.991 72.6473 163.885 72.6473C163.773 72.6473 163.649 72.6023 163.514 72.5123C163.379 72.4147 163.21 72.3096 163.007 72.1971C162.812 72.0845 162.569 71.9832 162.276 71.8932C161.991 71.7956 161.638 71.7468 161.218 71.7468C160.655 71.7468 160.16 71.8481 159.732 72.0508C159.304 72.2459 158.944 72.531 158.651 72.9062C158.366 73.2814 158.149 73.7354 157.999 74.2682C157.856 74.801 157.785 75.3975 157.785 76.0579C157.785 76.7482 157.864 77.3636 158.021 77.9039C158.179 78.4366 158.4 78.8869 158.685 79.2546C158.978 79.6148 159.327 79.8924 159.732 80.0875C160.145 80.2751 160.606 80.3689 161.116 80.3689C161.604 80.3689 162.006 80.3126 162.321 80.2001C162.636 80.08 162.895 79.9487 163.098 79.8061C163.308 79.6635 163.48 79.536 163.615 79.4234C163.758 79.3033 163.897 79.2433 164.032 79.2433C164.197 79.2433 164.324 79.3071 164.414 79.4347L164.977 80.1663C164.73 80.474 164.448 80.7366 164.133 80.9542C163.818 81.1718 163.476 81.3557 163.109 81.5058C162.749 81.6483 162.37 81.7534 161.972 81.8209C161.574 81.8885 161.169 81.9222 160.756 81.9222C160.043 81.9222 159.379 81.7909 158.764 81.5283C158.156 81.2656 157.627 80.8867 157.177 80.3914C156.727 79.8887 156.374 79.2733 156.119 78.5454C155.864 77.8176 155.736 76.9884 155.736 76.0579C155.736 75.2099 155.852 74.4258 156.085 73.7054C156.325 72.985 156.67 72.3659 157.121 71.8481C157.578 71.3229 158.137 70.9139 158.798 70.6212C159.466 70.3286 160.231 70.1823 161.094 70.1823C161.897 70.1823 162.602 70.3136 163.21 70.5762C163.825 70.8314 164.369 71.1953 164.842 71.6681L164.313 72.3884ZM175.676 70.1823C176.509 70.1823 177.259 70.3211 177.927 70.5987C178.595 70.8764 179.165 71.2703 179.638 71.7806C180.111 72.2909 180.471 72.91 180.719 73.6378C180.974 74.3582 181.101 75.1649 181.101 76.0579C181.101 76.9584 180.974 77.7688 180.719 78.4892C180.471 79.2095 180.111 79.8249 179.638 80.3351C179.165 80.8454 178.595 81.2394 177.927 81.517C177.259 81.7872 176.509 81.9222 175.676 81.9222C174.836 81.9222 174.078 81.7872 173.402 81.517C172.735 81.2394 172.164 80.8454 171.691 80.3351C171.219 79.8249 170.855 79.2095 170.6 78.4892C170.352 77.7688 170.228 76.9584 170.228 76.0579C170.228 75.1649 170.352 74.3582 170.6 73.6378C170.855 72.91 171.219 72.2909 171.691 71.7806C172.164 71.2703 172.735 70.8764 173.402 70.5987C174.078 70.3211 174.836 70.1823 175.676 70.1823ZM175.676 80.3577C176.802 80.3577 177.642 79.9825 178.197 79.2321C178.753 78.4742 179.03 77.4198 179.03 76.0691C179.03 74.7109 178.753 73.6529 178.197 72.895C177.642 72.1371 176.802 71.7581 175.676 71.7581C175.106 71.7581 174.607 71.8557 174.179 72.0508C173.759 72.2459 173.406 72.5273 173.121 72.895C172.843 73.2626 172.633 73.7166 172.491 74.2569C172.356 74.7897 172.288 75.3938 172.288 76.0691C172.288 77.4198 172.566 78.4742 173.121 79.2321C173.684 79.9825 174.535 80.3577 175.676 80.3577ZM189.653 65.1846V81.7646H187.65V65.1846H189.653ZM201.648 70.1823C202.481 70.1823 203.232 70.3211 203.9 70.5987C204.567 70.8764 205.138 71.2703 205.61 71.7806C206.083 72.2909 206.443 72.91 206.691 73.6378C206.946 74.3582 207.074 75.1649 207.074 76.0579C207.074 76.9584 206.946 77.7688 206.691 78.4892C206.443 79.2095 206.083 79.8249 205.61 80.3351C205.138 80.8454 204.567 81.2394 203.9 81.517C203.232 81.7872 202.481 81.9222 201.648 81.9222C200.808 81.9222 200.05 81.7872 199.375 81.517C198.707 81.2394 198.136 80.8454 197.664 80.3351C197.191 79.8249 196.827 79.2095 196.572 78.4892C196.324 77.7688 196.2 76.9584 196.2 76.0579C196.2 75.1649 196.324 74.3582 196.572 73.6378C196.827 72.91 197.191 72.2909 197.664 71.7806C198.136 71.2703 198.707 70.8764 199.375 70.5987C200.05 70.3211 200.808 70.1823 201.648 70.1823ZM201.648 80.3577C202.774 80.3577 203.614 79.9825 204.17 79.2321C204.725 78.4742 205.003 77.4198 205.003 76.0691C205.003 74.7109 204.725 73.6529 204.17 72.895C203.614 72.1371 202.774 71.7581 201.648 71.7581C201.078 71.7581 200.579 71.8557 200.151 72.0508C199.731 72.2459 199.378 72.5273 199.093 72.895C198.816 73.2626 198.605 73.7166 198.463 74.2569C198.328 74.7897 198.26 75.3938 198.26 76.0691C198.26 77.4198 198.538 78.4742 199.093 79.2321C199.656 79.9825 200.508 80.3577 201.648 80.3577ZM217.462 76.1929C217.867 76.1929 218.224 76.1367 218.531 76.0241C218.839 75.9115 219.098 75.754 219.308 75.5514C219.518 75.3488 219.676 75.1086 219.781 74.831C219.886 74.5458 219.938 74.2344 219.938 73.8967C219.938 73.1989 219.724 72.6436 219.297 72.2309C218.876 71.8181 218.265 71.6118 217.462 71.6118C216.651 71.6118 216.032 71.8181 215.605 72.2309C215.184 72.6436 214.974 73.1989 214.974 73.8967C214.974 74.2344 215.027 74.5458 215.132 74.831C215.244 75.1086 215.406 75.3488 215.616 75.5514C215.826 75.754 216.085 75.9115 216.393 76.0241C216.7 76.1367 217.057 76.1929 217.462 76.1929ZM221.075 82.3837C221.075 82.1061 220.996 81.881 220.839 81.7084C220.681 81.5358 220.467 81.4007 220.197 81.3032C219.934 81.2056 219.627 81.1381 219.274 81.1005C218.921 81.0555 218.546 81.0218 218.148 80.9992C217.758 80.9767 217.361 80.9542 216.955 80.9317C216.55 80.9092 216.16 80.8717 215.785 80.8191C215.365 81.0143 215.019 81.2619 214.749 81.562C214.487 81.8547 214.355 82.1999 214.355 82.5976C214.355 82.8527 214.419 83.0891 214.547 83.3067C214.682 83.5318 214.884 83.7232 215.154 83.8808C215.425 84.0459 215.762 84.1734 216.167 84.2635C216.58 84.361 217.064 84.4098 217.619 84.4098C218.16 84.4098 218.644 84.361 219.071 84.2635C219.499 84.1659 219.859 84.0271 220.152 83.847C220.452 83.6669 220.681 83.453 220.839 83.2054C220.996 82.9578 221.075 82.6839 221.075 82.3837ZM223.112 70.8126V71.5555C223.112 71.8031 222.955 71.9607 222.64 72.0282L221.345 72.1971C221.6 72.6923 221.728 73.2401 221.728 73.8405C221.728 74.3957 221.619 74.9023 221.401 75.36C221.191 75.8102 220.899 76.1967 220.524 76.5194C220.148 76.842 219.698 77.0897 219.173 77.2623C218.648 77.4349 218.077 77.5212 217.462 77.5212C216.929 77.5212 216.426 77.4574 215.954 77.3298C215.713 77.4799 215.53 77.6412 215.402 77.8138C215.274 77.9789 215.211 78.1477 215.211 78.3203C215.211 78.5905 215.319 78.7968 215.537 78.9394C215.762 79.0745 216.055 79.172 216.415 79.2321C216.775 79.2921 217.184 79.3296 217.642 79.3446C218.107 79.3596 218.58 79.3859 219.06 79.4234C219.548 79.4534 220.021 79.5097 220.478 79.5922C220.944 79.6748 221.356 79.8099 221.717 79.9975C222.077 80.1851 222.366 80.4439 222.583 80.7741C222.808 81.1043 222.921 81.532 222.921 82.0573C222.921 82.5451 222.797 83.0178 222.55 83.4756C222.309 83.9333 221.961 84.3385 221.503 84.6912C221.045 85.0514 220.482 85.3365 219.814 85.5467C219.154 85.7643 218.407 85.8731 217.574 85.8731C216.741 85.8731 216.014 85.7905 215.391 85.6254C214.768 85.4604 214.25 85.239 213.837 84.9613C213.425 84.6837 213.113 84.361 212.903 83.9933C212.701 83.6331 212.599 83.2542 212.599 82.8565C212.599 82.2937 212.776 81.8172 213.128 81.427C213.481 81.0368 213.965 80.7253 214.58 80.4927C214.243 80.3426 213.973 80.1438 213.77 79.8962C213.575 79.641 213.477 79.2996 213.477 78.8719C213.477 78.7068 213.507 78.5379 213.567 78.3653C213.627 78.1853 213.717 78.0089 213.837 77.8363C213.965 77.6562 214.119 77.4874 214.299 77.3298C214.479 77.1722 214.689 77.0334 214.929 76.9133C214.366 76.5982 213.928 76.1817 213.612 75.6639C213.297 75.1386 213.14 74.5308 213.14 73.8405C213.14 73.2852 213.245 72.7824 213.455 72.3322C213.672 71.8744 213.973 71.488 214.355 71.1728C214.738 70.8501 215.192 70.6025 215.717 70.4299C216.25 70.2573 216.832 70.171 217.462 70.171C217.957 70.171 218.419 70.2273 218.846 70.3398C219.274 70.4449 219.664 70.6025 220.017 70.8126H223.112ZM231.251 70.3624V81.7646H229.236V70.3624H231.251ZM233.57 65.4548L230.947 68.3588C230.842 68.4714 230.737 68.5539 230.632 68.6064C230.535 68.6515 230.407 68.674 230.249 68.674H229.056L230.722 65.95C230.827 65.7774 230.94 65.6536 231.06 65.5786C231.187 65.496 231.371 65.4548 231.611 65.4548H233.57ZM244.651 76.6319C243.728 76.6619 242.94 76.737 242.287 76.8571C241.642 76.9696 241.113 77.1197 240.7 77.3073C240.295 77.4949 239.999 77.7163 239.811 77.9714C239.631 78.2265 239.541 78.5117 239.541 78.8268C239.541 79.127 239.59 79.3859 239.687 79.6035C239.785 79.8211 239.916 80.0012 240.081 80.1438C240.254 80.2789 240.453 80.3802 240.678 80.4477C240.91 80.5077 241.158 80.5377 241.421 80.5377C241.773 80.5377 242.096 80.504 242.389 80.4364C242.681 80.3614 242.955 80.2563 243.21 80.1213C243.473 79.9862 243.721 79.8249 243.953 79.6373C244.193 79.4497 244.426 79.2358 244.651 78.9957V76.6319ZM238.179 71.972C238.809 71.3641 239.488 70.9102 240.216 70.61C240.944 70.3098 241.751 70.1598 242.636 70.1598C243.274 70.1598 243.841 70.2648 244.336 70.4749C244.831 70.685 245.248 70.9777 245.585 71.3529C245.923 71.7281 246.178 72.1821 246.351 72.7149C246.523 73.2476 246.61 73.8329 246.61 74.4708V81.7646H245.72C245.525 81.7646 245.375 81.7346 245.27 81.6746C245.165 81.6071 245.082 81.4795 245.022 81.2919L244.797 80.2113C244.497 80.489 244.205 80.7366 243.919 80.9542C243.634 81.1643 243.334 81.3444 243.019 81.4945C242.704 81.6371 242.366 81.7459 242.006 81.8209C241.653 81.9035 241.259 81.9447 240.824 81.9447C240.381 81.9447 239.965 81.8847 239.575 81.7646C239.184 81.6371 238.843 81.4495 238.55 81.2019C238.265 80.9542 238.036 80.6428 237.864 80.2676C237.699 79.8849 237.616 79.4347 237.616 78.9169C237.616 78.4667 237.74 78.0352 237.987 77.6225C238.235 77.2022 238.637 76.8308 239.192 76.5081C239.747 76.1854 240.471 75.9228 241.364 75.7202C242.257 75.5101 243.353 75.39 244.651 75.36V74.4708C244.651 73.5853 244.46 72.9175 244.077 72.4672C243.694 72.0095 243.135 71.7806 242.4 71.7806C241.905 71.7806 241.488 71.8444 241.15 71.972C240.82 72.092 240.531 72.2309 240.284 72.3884C240.044 72.5385 239.833 72.6773 239.653 72.8049C239.481 72.925 239.308 72.985 239.136 72.985C239.001 72.985 238.884 72.9512 238.787 72.8837C238.689 72.8087 238.607 72.7186 238.539 72.6136L238.179 71.972Z" fill="#236668"/>
<path d="M0 47.6506C-1.46561e-07 53.7958 1.21038 59.8808 3.56205 65.5582C5.91371 71.2356 9.36059 76.3942 13.7059 80.7395C18.0512 85.0848 23.2098 88.5317 28.8872 90.8834C34.5646 93.2351 40.6497 94.4454 46.7948 94.4454C52.94 94.4454 59.025 93.235 64.7025 90.8834C70.3799 88.5317 75.5385 85.0848 79.8838 80.7395C84.2291 76.3942 87.676 71.2356 90.0276 65.5582C92.3793 59.8808 93.5897 53.7958 93.5897 47.6506L46.7948 47.6506H0Z" fill="#236668"/>
<path d="M0 47.6506C0 41.5054 1.21038 35.4204 3.56205 29.7429C5.91371 24.0655 9.36059 18.9069 13.7059 14.5616C18.0512 10.2163 23.2098 6.76942 28.8872 4.41776C34.5646 2.0661 40.6497 0.855713 46.7948 0.855713C52.94 0.855713 59.025 2.0661 64.7025 4.41776C70.3799 6.76942 75.5385 10.2163 79.8838 14.5616C84.2291 18.9069 87.676 24.0655 90.0276 29.7429C92.3793 35.4204 93.5897 41.5054 93.5897 47.6506L46.7948 47.6506H0Z" fill="#FDCC61"/>
<path d="M0 47.6506C0 44.5685 0.605129 41.5165 1.78096 38.669C2.95679 35.8215 4.68023 33.2342 6.85288 31.0548C9.02554 28.8754 11.6048 27.1466 14.4436 25.9672C17.2823 24.7877 20.3248 24.1806 23.3974 24.1806C26.47 24.1806 29.5125 24.7877 32.3512 25.9672C35.1899 27.1466 37.7692 28.8754 39.9418 31.0548C42.1145 33.2342 43.8379 35.8215 45.0138 38.669C46.1896 41.5165 46.7948 44.5685 46.7948 47.6506H0Z" fill="#D97BE7"/>
<path d="M93.5897 47.6506C93.5897 50.7327 92.9844 53.7847 91.8086 56.6322C90.6328 59.4797 88.9093 62.067 86.7367 64.2464C84.564 66.4257 81.9847 68.1545 79.146 69.334C76.3073 70.5135 73.2648 71.1205 70.1922 71.1205C67.1196 71.1205 64.0771 70.5135 61.2384 69.334C58.3997 68.1545 55.8204 66.4257 53.6477 64.2463C51.4751 62.067 49.7516 59.4797 48.5758 56.6322C47.4 53.7847 46.7948 50.7327 46.7948 47.6506L93.5897 47.6506Z" fill="#5CBFC2"/>
</svg>
