<svg width="596" height="206" viewBox="0 0 596 206" fill="none" xmlns="http://www.w3.org/2000/svg">
<path d="M243.763 102.677V98.8758C246.298 98.8091 248.332 98.6423 249.866 98.3755C251.467 98.042 252.7 97.4751 253.567 96.6748C254.435 95.8077 255.001 94.6738 255.268 93.2732C255.602 91.8059 255.768 89.8717 255.768 87.4706V40.8494C255.768 38.515 255.635 36.6475 255.368 35.2468C255.168 33.7795 254.701 32.6456 253.968 31.8453C253.301 30.9782 252.3 30.4113 250.966 30.1445C249.632 29.811 247.898 29.5776 245.764 29.4442V25.6424H280.88C286.883 25.6424 292.418 26.6429 297.487 28.6438C302.623 30.6447 307.025 33.4127 310.693 36.9476C314.429 40.4825 317.33 44.6844 319.397 49.5533C321.465 54.4222 322.499 59.7246 322.499 65.4606C322.499 70.9297 321.532 75.9653 319.598 80.5674C317.663 85.1028 314.929 89.0046 311.394 92.2728C307.926 95.5409 303.757 98.1087 298.888 99.9763C294.019 101.777 288.683 102.677 282.881 102.677H243.763ZM267.974 30.5447C266.84 30.5447 266.273 31.1116 266.273 32.2455V86.3701C266.273 93.9735 271.242 97.7753 281.18 97.7753C290.318 97.7753 297.321 95.074 302.19 89.6716C307.058 84.2024 309.493 76.1988 309.493 65.6607C309.493 60.1248 308.826 55.1892 307.492 50.8539C306.158 46.5186 304.224 42.8503 301.689 39.8489C299.222 36.8475 296.22 34.5465 292.685 32.9458C289.15 31.345 285.149 30.5447 280.68 30.5447H267.974ZM352.091 86.7703C352.091 89.5048 352.158 91.6725 352.291 93.2732C352.425 94.8739 352.758 96.1078 353.292 96.9749C353.892 97.7753 354.726 98.3088 355.793 98.5756C356.86 98.8424 358.361 99.0425 360.295 99.1759V102.677H333.683V99.1759C335.617 99.1092 337.151 98.9425 338.285 98.6757C339.419 98.3422 340.286 97.7753 340.886 96.9749C341.486 96.1745 341.853 95.0407 341.987 93.5733C342.187 92.0393 342.287 90.0051 342.287 87.4706V75.7652C342.287 71.2299 342.22 67.6949 342.087 65.1604C342.02 62.6259 341.686 60.7584 341.086 59.5579C340.553 58.3573 339.686 57.657 338.485 57.4569C337.284 57.1901 335.617 57.0567 333.483 57.0567V53.5551L350.991 49.7534L352.391 62.1591H352.792C353.659 60.1581 354.726 58.324 355.993 56.6566C357.327 54.9891 358.761 53.5885 360.295 52.4546C361.829 51.2541 363.43 50.3203 365.097 49.6534C366.765 48.9864 368.465 48.6529 370.199 48.6529C372.334 48.6529 374.001 49.1865 375.202 50.2536C376.469 51.2541 377.103 52.6214 377.103 54.3555C377.103 55.9562 376.602 57.2235 375.602 58.1572C374.601 59.0243 373.167 59.4578 371.3 59.4578C370.233 59.4578 369.332 59.3244 368.599 59.0576C367.865 58.7909 367.198 58.5241 366.598 58.2573C366.064 57.9238 365.531 57.6237 364.997 57.3569C364.53 57.0901 363.997 56.9567 363.396 56.9567C361.596 56.9567 359.795 58.1239 357.994 60.4583C356.193 62.726 354.792 65.6273 353.792 69.1622C353.258 71.0965 352.825 73.2975 352.491 75.7652C352.225 78.1663 352.091 80.7008 352.091 83.3687V86.7703ZM413.976 73.064C410.174 74.5314 406.939 75.9653 404.271 77.366C401.67 78.7666 399.569 80.1673 397.968 81.5679C396.368 82.9685 395.2 84.3692 394.467 85.7698C393.8 87.1704 393.466 88.6044 393.466 90.0718C393.466 92.2728 394.2 94.0736 395.667 95.4742C397.135 96.8749 399.069 97.5752 401.47 97.5752C403.204 97.5752 404.805 97.1416 406.272 96.2746C407.806 95.4075 409.14 94.2403 410.274 92.773C411.408 91.239 412.308 89.4715 412.975 87.4706C413.642 85.403 413.976 83.2353 413.976 80.9676V73.064ZM413.976 68.7621V64.6602C413.976 56.5232 410.507 52.4546 403.571 52.4546C402.437 52.4546 401.47 52.5547 400.67 52.7548C399.869 52.9549 399.202 53.2884 398.669 53.7552C398.135 54.2221 397.635 54.8891 397.168 55.7561C396.768 56.6232 396.368 57.6904 395.967 58.9576C395.234 60.8918 394.5 62.1924 393.766 62.8594C393.099 63.4597 392.099 63.7598 390.765 63.7598C387.43 63.7598 385.763 62.0924 385.763 58.7575C385.763 55.5561 387.464 53.0883 390.865 51.3541C394.267 49.5533 399.102 48.6529 405.372 48.6529C412.041 48.6529 416.777 49.8535 419.578 52.2546C422.379 54.589 423.78 58.5908 423.78 64.26V86.6702C423.78 94.2737 425.281 98.0754 428.282 98.0754C429.216 98.0754 430.116 97.9754 430.983 97.7753C431.85 97.5085 432.584 96.8749 433.184 95.8744L434.585 98.2755C433.785 99.8095 432.317 101.11 430.183 102.177C428.049 103.178 425.814 103.678 423.48 103.678C420.545 103.678 418.344 102.744 416.877 100.877C415.476 99.0092 414.776 96.3746 414.776 92.9731H414.276C412.542 96.2412 410.141 98.8424 407.072 100.777C404.004 102.644 400.603 103.578 396.868 103.578C392.666 103.578 389.364 102.511 386.963 100.376C384.562 98.2421 383.362 95.3742 383.362 91.7725C383.362 90.1718 383.628 88.6378 384.162 87.1704C384.762 85.7031 385.696 84.3025 386.963 82.9685C388.231 81.6346 389.898 80.334 391.966 79.0668C394.033 77.7328 396.568 76.3989 399.569 75.0649L413.976 68.7621ZM463.369 81.1677C466.17 81.1677 468.338 79.9005 469.872 77.366C471.473 74.8315 472.273 71.2632 472.273 66.6611C472.273 62.1257 471.473 58.6241 469.872 56.1563C468.338 53.6218 466.137 52.3546 463.269 52.3546C460.401 52.3546 458.1 53.6218 456.366 56.1563C454.699 58.6908 453.865 62.1591 453.865 66.5611C453.865 70.9631 454.732 74.498 456.466 77.1659C458.2 79.8338 460.501 81.1677 463.369 81.1677ZM457.867 92.873C459.467 93.0064 460.935 93.1398 462.269 93.2732C463.603 93.4066 464.903 93.54 466.17 93.6734C467.504 93.8068 468.805 93.9735 470.072 94.1736C471.406 94.3737 472.84 94.5738 474.374 94.7739C479.176 95.5076 483.011 97.3751 485.879 100.376C488.814 103.311 490.281 107.013 490.281 111.481C490.281 117.084 488.047 121.353 483.578 124.287C479.176 127.222 472.773 128.689 464.37 128.689C460.635 128.689 457.2 128.356 454.065 127.689C450.997 127.022 448.362 126.055 446.161 124.788C443.96 123.587 442.226 122.12 440.959 120.386C439.758 118.651 439.158 116.751 439.158 114.683C439.158 113.282 439.392 111.982 439.858 110.781C440.325 109.581 440.959 108.513 441.759 107.58C442.56 106.713 443.493 106.012 444.561 105.479C445.694 104.945 446.862 104.678 448.062 104.678C450.33 104.678 452.364 105.379 454.165 106.779C452.364 107.18 450.897 108.147 449.763 109.681C448.629 111.281 448.062 113.082 448.062 115.083C448.062 118.018 449.496 120.285 452.364 121.886C455.299 123.487 459.434 124.287 464.77 124.287C476.175 124.287 481.878 120.786 481.878 113.783C481.878 111.115 480.977 108.88 479.176 107.079C477.376 105.345 475.241 104.312 472.773 103.978C471.173 103.778 469.505 103.545 467.771 103.278C466.104 103.078 464.436 102.878 462.769 102.677C461.168 102.477 459.667 102.311 458.267 102.177C456.866 102.044 455.732 101.91 454.865 101.777C451.13 101.377 448.296 100.376 446.361 98.7757C444.427 97.175 443.46 94.974 443.46 92.1727C443.46 89.8383 444.427 87.7707 446.361 85.9699C448.296 84.1691 450.73 83.0352 453.665 82.5683V82.1682C452.197 81.5679 450.83 80.7342 449.563 79.667C448.296 78.5332 447.195 77.2659 446.261 75.8653C445.394 74.4647 444.694 72.964 444.16 71.3632C443.627 69.6958 443.36 67.995 443.36 66.2609C443.36 63.7264 443.827 61.392 444.761 59.2577C445.761 57.1234 447.128 55.2893 448.863 53.7552C450.663 52.1545 452.764 50.9206 455.165 50.0536C457.567 49.1198 460.201 48.6529 463.069 48.6529C466.004 48.6529 468.772 49.1198 471.373 50.0536C473.974 50.9206 476.208 52.2212 478.076 53.9553C480.344 52.0878 482.344 50.7539 484.079 49.9535C485.813 49.0864 487.447 48.6529 488.981 48.6529C491.382 48.6529 493.283 49.2198 494.683 50.3537C496.151 51.4208 496.884 52.8882 496.884 54.7557C496.884 55.8895 496.484 56.79 495.684 57.4569C494.95 58.1239 494.016 58.4574 492.883 58.4574C491.949 58.4574 491.182 58.2906 490.582 57.9571C489.981 57.6237 489.414 57.2902 488.881 56.9567C488.414 56.5565 487.914 56.1897 487.38 55.8562C486.847 55.5227 486.18 55.356 485.379 55.356C483.778 55.356 482.144 55.9229 480.477 57.0567C482.078 59.5245 482.878 62.6259 482.878 66.361C482.878 72.0302 481.111 76.4989 477.576 79.7671C474.041 82.9685 468.738 84.836 461.668 85.3696C457.6 85.7031 454.765 86.1366 453.165 86.6702C451.564 87.2038 450.763 88.1709 450.763 89.5715C450.763 90.6387 451.364 91.439 452.564 91.9726C453.765 92.4395 455.532 92.7396 457.867 92.873ZM529.374 48.6529C533.176 48.6529 536.778 49.3532 540.179 50.7539C543.581 52.0878 546.549 53.9553 549.083 56.3564C551.684 58.7575 553.719 61.6255 555.186 64.9603C556.72 68.2285 557.487 71.8301 557.487 75.7652C557.487 79.8338 556.72 83.5688 555.186 86.9703C553.719 90.3719 551.684 93.3066 549.083 95.7744C546.549 98.2421 543.581 100.176 540.179 101.577C536.778 102.978 533.176 103.678 529.374 103.678C525.639 103.678 522.071 103.011 518.669 101.677C515.334 100.276 512.4 98.3422 509.865 95.8744C507.331 93.4066 505.33 90.4719 503.863 87.0704C502.395 83.6021 501.662 79.8338 501.662 75.7652C501.662 71.8301 502.395 68.1951 503.863 64.8603C505.33 61.5254 507.331 58.6575 509.865 56.2564C512.4 53.8553 515.334 51.9878 518.669 50.6538C522.071 49.3199 525.639 48.6529 529.374 48.6529ZM529.374 53.4551C526.906 53.4551 524.639 53.9887 522.571 55.0558C520.57 56.123 518.836 57.657 517.369 59.6579C515.968 61.5921 514.868 63.9599 514.067 66.7612C513.334 69.4957 512.967 72.5304 512.967 75.8653C512.967 79.3335 513.334 82.4683 514.067 85.2696C514.868 88.0708 515.968 90.4719 517.369 92.4728C518.836 94.4071 520.57 95.9077 522.571 96.9749C524.572 98.042 526.84 98.5756 529.374 98.5756C531.909 98.5756 534.21 98.042 536.277 96.9749C538.345 95.9077 540.112 94.3737 541.58 92.3728C543.047 90.3719 544.181 87.9708 544.981 85.1695C545.782 82.3683 546.182 79.2668 546.182 75.8653C546.182 72.5304 545.782 69.4957 544.981 66.7612C544.181 64.0266 543.047 61.6922 541.58 59.758C540.112 57.7571 538.345 56.223 536.277 55.1559C534.21 54.022 531.909 53.4551 529.374 53.4551Z" fill="#236668"/>
<path d="M259.764 172.302C260.568 173.384 261.445 174.146 262.395 174.588C263.346 175.031 264.412 175.252 265.592 175.252C267.919 175.252 269.706 174.424 270.952 172.769C272.198 171.113 272.821 168.753 272.821 165.687C272.821 164.065 272.673 162.671 272.378 161.507C272.1 160.344 271.69 159.393 271.149 158.655C270.608 157.901 269.944 157.352 269.157 157.008C268.37 156.663 267.477 156.491 266.477 156.491C265.051 156.491 263.797 156.819 262.715 157.475C261.649 158.131 260.666 159.057 259.764 160.253V172.302ZM259.543 157.254C260.592 155.959 261.805 154.918 263.182 154.131C264.559 153.344 266.133 152.951 267.903 152.951C269.346 152.951 270.649 153.229 271.813 153.787C272.976 154.328 273.968 155.139 274.788 156.221C275.607 157.286 276.239 158.614 276.681 160.204C277.124 161.794 277.345 163.622 277.345 165.687C277.345 167.523 277.099 169.236 276.607 170.826C276.116 172.4 275.403 173.769 274.468 174.933C273.55 176.08 272.419 176.99 271.075 177.662C269.747 178.318 268.247 178.646 266.575 178.646C265.051 178.646 263.739 178.391 262.641 177.883C261.559 177.359 260.6 176.637 259.764 175.719V186.735H255.363V153.393H257.994C258.617 153.393 259.002 153.696 259.15 154.303L259.543 157.254ZM306.042 157.499C305.845 157.86 305.542 158.04 305.132 158.04C304.886 158.04 304.608 157.95 304.296 157.77C303.985 157.59 303.6 157.393 303.141 157.18C302.698 156.95 302.165 156.745 301.542 156.565C300.919 156.368 300.182 156.27 299.329 156.27C298.592 156.27 297.928 156.368 297.338 156.565C296.748 156.745 296.239 156.999 295.813 157.327C295.403 157.655 295.084 158.04 294.854 158.483C294.641 158.909 294.535 159.376 294.535 159.885C294.535 160.524 294.715 161.057 295.076 161.483C295.453 161.909 295.944 162.278 296.551 162.589C297.157 162.901 297.846 163.179 298.616 163.425C299.387 163.655 300.174 163.909 300.977 164.188C301.796 164.45 302.591 164.745 303.362 165.073C304.132 165.401 304.821 165.81 305.427 166.302C306.034 166.794 306.517 167.4 306.878 168.122C307.255 168.827 307.444 169.679 307.444 170.679C307.444 171.826 307.239 172.892 306.829 173.875C306.419 174.842 305.813 175.687 305.009 176.408C304.206 177.113 303.223 177.67 302.059 178.08C300.895 178.49 299.551 178.695 298.026 178.695C296.289 178.695 294.715 178.416 293.305 177.859C291.896 177.285 290.699 176.555 289.715 175.67L290.748 173.998C290.879 173.785 291.035 173.621 291.215 173.507C291.396 173.392 291.625 173.334 291.904 173.334C292.199 173.334 292.51 173.449 292.838 173.679C293.166 173.908 293.559 174.162 294.018 174.441C294.494 174.72 295.067 174.974 295.739 175.203C296.412 175.433 297.248 175.547 298.248 175.547C299.1 175.547 299.846 175.441 300.485 175.228C301.124 174.998 301.657 174.695 302.083 174.318C302.51 173.941 302.821 173.507 303.018 173.015C303.231 172.523 303.337 171.998 303.337 171.441C303.337 170.753 303.149 170.187 302.772 169.744C302.411 169.286 301.928 168.9 301.321 168.589C300.715 168.261 300.018 167.982 299.231 167.753C298.461 167.507 297.666 167.253 296.846 166.991C296.043 166.728 295.248 166.433 294.461 166.105C293.69 165.761 293.002 165.335 292.395 164.827C291.789 164.319 291.297 163.696 290.92 162.958C290.56 162.204 290.379 161.294 290.379 160.229C290.379 159.278 290.576 158.368 290.969 157.499C291.363 156.614 291.936 155.844 292.691 155.188C293.445 154.516 294.371 153.983 295.469 153.59C296.567 153.196 297.821 153 299.231 153C300.87 153 302.337 153.262 303.632 153.787C304.944 154.295 306.075 155 307.026 155.901L306.042 157.499ZM326.038 153.393V178.301H321.661V153.393H326.038ZM326.973 145.574C326.973 146 326.882 146.402 326.702 146.779C326.538 147.14 326.309 147.467 326.014 147.762C325.735 148.041 325.399 148.262 325.006 148.426C324.628 148.59 324.227 148.672 323.801 148.672C323.374 148.672 322.973 148.59 322.596 148.426C322.235 148.262 321.916 148.041 321.637 147.762C321.358 147.467 321.137 147.14 320.973 146.779C320.809 146.402 320.727 146 320.727 145.574C320.727 145.148 320.809 144.746 320.973 144.369C321.137 143.976 321.358 143.64 321.637 143.361C321.916 143.066 322.235 142.837 322.596 142.673C322.973 142.509 323.374 142.427 323.801 142.427C324.227 142.427 324.628 142.509 325.006 142.673C325.399 142.837 325.735 143.066 326.014 143.361C326.309 143.64 326.538 143.976 326.702 144.369C326.882 144.746 326.973 145.148 326.973 145.574ZM359.17 157.819C359.039 157.999 358.908 158.139 358.777 158.237C358.646 158.335 358.466 158.385 358.236 158.385C357.99 158.385 357.72 158.286 357.425 158.09C357.13 157.876 356.761 157.647 356.318 157.401C355.892 157.155 355.359 156.934 354.72 156.737C354.097 156.524 353.327 156.418 352.409 156.418C351.179 156.418 350.097 156.639 349.163 157.081C348.229 157.508 347.442 158.131 346.802 158.95C346.179 159.77 345.704 160.762 345.376 161.925C345.065 163.089 344.909 164.392 344.909 165.835C344.909 167.343 345.081 168.687 345.425 169.867C345.77 171.031 346.253 172.015 346.876 172.818C347.515 173.605 348.278 174.211 349.163 174.638C350.064 175.047 351.073 175.252 352.187 175.252C353.253 175.252 354.13 175.129 354.818 174.883C355.507 174.621 356.072 174.334 356.515 174.023C356.974 173.711 357.351 173.433 357.646 173.187C357.957 172.925 358.261 172.793 358.556 172.793C358.916 172.793 359.195 172.933 359.392 173.211L360.621 174.81C360.08 175.482 359.465 176.056 358.777 176.531C358.088 177.006 357.343 177.408 356.539 177.736C355.753 178.047 354.925 178.277 354.056 178.424C353.187 178.572 352.302 178.646 351.4 178.646C349.843 178.646 348.392 178.359 347.048 177.785C345.721 177.211 344.565 176.383 343.581 175.301C342.598 174.203 341.827 172.859 341.27 171.269C340.713 169.679 340.434 167.868 340.434 165.835C340.434 163.983 340.688 162.27 341.196 160.696C341.721 159.122 342.475 157.77 343.458 156.639C344.458 155.491 345.68 154.598 347.122 153.959C348.581 153.319 350.253 153 352.138 153C353.892 153 355.433 153.287 356.761 153.86C358.105 154.418 359.293 155.213 360.326 156.245L359.17 157.819ZM383.992 153C385.812 153 387.451 153.303 388.91 153.91C390.369 154.516 391.615 155.377 392.648 156.491C393.68 157.606 394.467 158.958 395.008 160.548C395.565 162.122 395.844 163.884 395.844 165.835C395.844 167.802 395.565 169.572 395.008 171.146C394.467 172.72 393.68 174.064 392.648 175.179C391.615 176.293 390.369 177.154 388.91 177.76C387.451 178.35 385.812 178.646 383.992 178.646C382.156 178.646 380.501 178.35 379.026 177.76C377.567 177.154 376.321 176.293 375.288 175.179C374.255 174.064 373.46 172.72 372.903 171.146C372.362 169.572 372.092 167.802 372.092 165.835C372.092 163.884 372.362 162.122 372.903 160.548C373.46 158.958 374.255 157.606 375.288 156.491C376.321 155.377 377.567 154.516 379.026 153.91C380.501 153.303 382.156 153 383.992 153ZM383.992 175.228C386.451 175.228 388.287 174.408 389.5 172.769C390.713 171.113 391.32 168.81 391.32 165.86C391.32 162.893 390.713 160.581 389.5 158.926C388.287 157.27 386.451 156.442 383.992 156.442C382.747 156.442 381.657 156.655 380.722 157.081C379.804 157.508 379.034 158.122 378.411 158.926C377.804 159.729 377.345 160.721 377.034 161.901C376.739 163.065 376.591 164.384 376.591 165.86C376.591 168.81 377.198 171.113 378.411 172.769C379.64 174.408 381.501 175.228 383.992 175.228ZM414.526 142.082V178.301H410.149V142.082H414.526ZM440.728 153C442.548 153 444.187 153.303 445.646 153.91C447.105 154.516 448.351 155.377 449.383 156.491C450.416 157.606 451.203 158.958 451.744 160.548C452.301 162.122 452.58 163.884 452.58 165.835C452.58 167.802 452.301 169.572 451.744 171.146C451.203 172.72 450.416 174.064 449.383 175.179C448.351 176.293 447.105 177.154 445.646 177.76C444.187 178.35 442.548 178.646 440.728 178.646C438.892 178.646 437.237 178.35 435.761 177.76C434.303 177.154 433.057 176.293 432.024 175.179C430.991 174.064 430.196 172.72 429.639 171.146C429.098 169.572 428.828 167.802 428.828 165.835C428.828 163.884 429.098 162.122 429.639 160.548C430.196 158.958 430.991 157.606 432.024 156.491C433.057 155.377 434.303 154.516 435.761 153.91C437.237 153.303 438.892 153 440.728 153ZM440.728 175.228C443.187 175.228 445.023 174.408 446.236 172.769C447.449 171.113 448.056 168.81 448.056 165.86C448.056 162.893 447.449 160.581 446.236 158.926C445.023 157.27 443.187 156.442 440.728 156.442C439.483 156.442 438.392 156.655 437.458 157.081C436.54 157.508 435.77 158.122 435.147 158.926C434.54 159.729 434.081 160.721 433.77 161.901C433.475 163.065 433.327 164.384 433.327 165.86C433.327 168.81 433.934 171.113 435.147 172.769C436.376 174.408 438.237 175.228 440.728 175.228ZM475.273 166.13C476.158 166.13 476.937 166.007 477.609 165.761C478.281 165.515 478.846 165.171 479.305 164.728C479.764 164.286 480.109 163.761 480.338 163.155C480.568 162.532 480.682 161.852 480.682 161.114C480.682 159.589 480.215 158.376 479.281 157.475C478.363 156.573 477.027 156.122 475.273 156.122C473.502 156.122 472.15 156.573 471.216 157.475C470.298 158.376 469.839 159.589 469.839 161.114C469.839 161.852 469.953 162.532 470.183 163.155C470.429 163.761 470.781 164.286 471.24 164.728C471.699 165.171 472.265 165.515 472.937 165.761C473.609 166.007 474.388 166.13 475.273 166.13ZM483.166 179.654C483.166 179.047 482.994 178.555 482.649 178.178C482.305 177.801 481.838 177.506 481.248 177.293C480.674 177.08 480.002 176.933 479.232 176.851C478.461 176.752 477.641 176.678 476.773 176.629C475.92 176.58 475.051 176.531 474.166 176.482C473.281 176.433 472.429 176.351 471.609 176.236C470.691 176.662 469.937 177.203 469.347 177.859C468.773 178.498 468.486 179.252 468.486 180.121C468.486 180.678 468.626 181.195 468.904 181.67C469.199 182.162 469.642 182.58 470.232 182.924C470.822 183.285 471.56 183.563 472.445 183.76C473.347 183.973 474.404 184.08 475.617 184.08C476.797 184.08 477.855 183.973 478.789 183.76C479.723 183.547 480.51 183.244 481.149 182.85C481.805 182.457 482.305 181.99 482.649 181.449C482.994 180.908 483.166 180.309 483.166 179.654ZM487.616 154.377V156C487.616 156.54 487.272 156.885 486.583 157.032L483.756 157.401C484.313 158.483 484.592 159.68 484.592 160.991C484.592 162.204 484.354 163.311 483.879 164.31C483.42 165.294 482.78 166.138 481.961 166.843C481.141 167.548 480.158 168.089 479.01 168.466C477.863 168.843 476.617 169.031 475.273 169.031C474.109 169.031 473.011 168.892 471.978 168.613C471.453 168.941 471.052 169.294 470.773 169.671C470.494 170.031 470.355 170.4 470.355 170.777C470.355 171.367 470.593 171.818 471.068 172.13C471.56 172.425 472.199 172.638 472.986 172.769C473.773 172.9 474.666 172.982 475.666 173.015C476.683 173.048 477.715 173.105 478.764 173.187C479.83 173.252 480.863 173.375 481.862 173.556C482.879 173.736 483.78 174.031 484.567 174.441C485.354 174.851 485.985 175.416 486.461 176.137C486.952 176.859 487.198 177.793 487.198 178.941C487.198 180.006 486.928 181.039 486.387 182.039C485.862 183.039 485.1 183.924 484.1 184.694C483.1 185.481 481.871 186.104 480.412 186.563C478.969 187.038 477.338 187.276 475.519 187.276C473.699 187.276 472.109 187.096 470.749 186.735C469.388 186.374 468.257 185.891 467.355 185.284C466.454 184.678 465.773 183.973 465.314 183.17C464.872 182.383 464.651 181.555 464.651 180.686C464.651 179.457 465.036 178.416 465.806 177.564C466.577 176.711 467.634 176.031 468.978 175.523C468.24 175.195 467.65 174.761 467.208 174.22C466.782 173.662 466.568 172.916 466.568 171.982C466.568 171.621 466.634 171.253 466.765 170.876C466.896 170.482 467.093 170.097 467.355 169.72C467.634 169.326 467.97 168.958 468.363 168.613C468.757 168.269 469.216 167.966 469.74 167.704C468.511 167.015 467.552 166.105 466.864 164.974C466.175 163.827 465.831 162.499 465.831 160.991C465.831 159.778 466.06 158.68 466.519 157.696C466.995 156.696 467.65 155.852 468.486 155.164C469.322 154.459 470.314 153.918 471.462 153.541C472.625 153.164 473.896 152.975 475.273 152.975C476.355 152.975 477.363 153.098 478.297 153.344C479.232 153.573 480.084 153.918 480.854 154.377H487.616ZM505.395 153.393V178.301H500.994V153.393H505.395ZM510.46 142.673L504.731 149.016C504.502 149.262 504.272 149.443 504.043 149.557C503.83 149.656 503.551 149.705 503.207 149.705H500.6L504.24 143.755C504.469 143.377 504.715 143.107 504.977 142.943C505.256 142.763 505.657 142.673 506.182 142.673H510.46ZM534.667 167.089C532.651 167.155 530.93 167.318 529.503 167.581C528.094 167.827 526.938 168.154 526.036 168.564C525.151 168.974 524.504 169.458 524.094 170.015C523.701 170.572 523.504 171.195 523.504 171.884C523.504 172.539 523.61 173.105 523.823 173.58C524.037 174.056 524.323 174.449 524.684 174.761C525.061 175.056 525.495 175.277 525.987 175.424C526.495 175.556 527.036 175.621 527.61 175.621C528.381 175.621 529.085 175.547 529.725 175.4C530.364 175.236 530.962 175.006 531.52 174.711C532.093 174.416 532.634 174.064 533.142 173.654C533.667 173.244 534.175 172.777 534.667 172.253V167.089ZM520.529 156.909C521.906 155.582 523.389 154.59 524.979 153.934C526.569 153.278 528.331 152.951 530.266 152.951C531.659 152.951 532.897 153.18 533.978 153.639C535.06 154.098 535.97 154.737 536.708 155.557C537.445 156.377 538.003 157.368 538.38 158.532C538.757 159.696 538.945 160.975 538.945 162.368V178.301H537.003C536.577 178.301 536.249 178.236 536.019 178.105C535.79 177.957 535.61 177.678 535.478 177.269L534.987 174.908C534.331 175.515 533.692 176.056 533.069 176.531C532.446 176.99 531.79 177.383 531.102 177.711C530.413 178.023 529.676 178.26 528.889 178.424C528.118 178.605 527.258 178.695 526.307 178.695C525.34 178.695 524.43 178.564 523.578 178.301C522.725 178.023 521.979 177.613 521.34 177.072C520.717 176.531 520.217 175.851 519.84 175.031C519.479 174.195 519.299 173.211 519.299 172.08C519.299 171.097 519.57 170.154 520.111 169.253C520.652 168.335 521.529 167.523 522.742 166.818C523.955 166.114 525.536 165.54 527.487 165.097C529.438 164.638 531.831 164.376 534.667 164.31V162.368C534.667 160.434 534.249 158.975 533.413 157.991C532.577 156.991 531.356 156.491 529.749 156.491C528.667 156.491 527.758 156.631 527.02 156.909C526.299 157.172 525.668 157.475 525.127 157.819C524.602 158.147 524.143 158.45 523.75 158.729C523.373 158.991 522.996 159.122 522.619 159.122C522.324 159.122 522.069 159.049 521.856 158.901C521.643 158.737 521.463 158.54 521.315 158.311L520.529 156.909Z" fill="#236668"/>
<path d="M0.231079 102.838C0.231079 116.262 2.87514 129.554 8.0123 141.956C13.1495 154.359 20.6791 165.628 30.1714 175.12C39.6636 184.612 50.9325 192.142 63.3347 197.279C75.7369 202.416 89.0295 205.06 102.454 205.06C115.878 205.06 129.17 202.416 141.572 197.279C153.975 192.142 165.244 184.612 174.736 175.12C184.228 165.628 191.758 154.359 196.895 141.956C202.032 129.554 204.676 116.262 204.676 102.838L102.454 102.838H0.231079Z" fill="#236668"/>
<path d="M0.231079 102.838C0.231079 89.4135 2.87514 76.1209 8.01231 63.7186C13.1495 51.3164 20.6791 40.0475 30.1714 30.5553C39.6636 21.063 50.9325 13.5334 63.3347 8.39621C75.7369 3.25905 89.0296 0.61499 102.454 0.61499C115.878 0.614991 129.17 3.25906 141.572 8.39622C153.975 13.5334 165.244 21.063 174.736 30.5553C184.228 40.0475 191.758 51.3164 196.895 63.7187C202.032 76.1209 204.676 89.4135 204.676 102.838L102.454 102.838H0.231079Z" fill="#FDCC61"/>
<path d="M0.231079 102.838C0.231079 96.1048 1.55297 89.4377 4.12155 83.2174C6.69014 76.9971 10.455 71.3452 15.2011 66.5844C19.9472 61.8235 25.5817 58.0471 31.7828 55.4705C37.9839 52.894 44.6302 51.5679 51.3422 51.5679C58.0542 51.5679 64.7005 52.894 70.9016 55.4705C77.1027 58.0471 82.7372 61.8235 87.4833 66.5844C92.2294 71.3452 95.9943 76.9971 98.5629 83.2174C101.131 89.4377 102.454 96.1048 102.454 102.838H0.231079Z" fill="#D97BE7"/>
<path d="M204.676 102.838C204.676 109.57 203.354 116.237 200.785 122.458C198.217 128.678 194.452 134.33 189.706 139.091C184.96 143.852 179.325 147.628 173.124 150.205C166.923 152.781 160.277 154.107 153.565 154.107C146.853 154.107 140.206 152.781 134.005 150.205C127.804 147.628 122.17 143.852 117.424 139.091C112.677 134.33 108.913 128.678 106.344 122.458C103.775 116.237 102.454 109.57 102.454 102.838L204.676 102.838Z" fill="#5CBFC2"/>
</svg>
