<svg width="251" height="86" viewBox="0 0 251 86" fill="none" xmlns="http://www.w3.org/2000/svg">
<path d="M102.854 45.2792V43.6071C103.968 43.5777 104.863 43.5044 105.538 43.3871C106.242 43.2404 106.785 42.9911 107.166 42.639C107.547 42.2577 107.797 41.759 107.914 41.143C108.061 40.4976 108.134 39.6469 108.134 38.5908V18.0857C108.134 17.059 108.075 16.2376 107.958 15.6216C107.87 14.9762 107.665 14.4775 107.342 14.1255C107.049 13.7441 106.609 13.4948 106.022 13.3774C105.435 13.2308 104.672 13.1281 103.734 13.0694V11.3973H119.179C121.819 11.3973 124.254 11.8374 126.483 12.7174C128.742 13.5975 130.678 14.8149 132.291 16.3696C133.934 17.9244 135.21 19.7725 136.12 21.9139C137.029 24.0554 137.484 26.3875 137.484 28.9103C137.484 31.3158 137.058 33.5305 136.208 35.5546C135.357 37.5494 134.154 39.2655 132.599 40.7029C131.074 42.1403 129.24 43.2697 127.099 44.0911C124.958 44.8832 122.611 45.2792 120.059 45.2792H102.854ZM113.502 13.5535C113.004 13.5535 112.754 13.8028 112.754 14.3015V38.1068C112.754 41.451 114.94 43.1231 119.311 43.1231C123.33 43.1231 126.41 41.935 128.551 39.5589C130.693 37.1534 131.763 33.6332 131.763 28.9983C131.763 26.5635 131.47 24.3927 130.883 22.4859C130.297 20.5792 129.446 18.9657 128.331 17.6457C127.246 16.3256 125.926 15.3135 124.371 14.6095C122.816 13.9055 121.056 13.5535 119.091 13.5535H113.502ZM150.499 38.2828C150.499 39.4855 150.528 40.4389 150.587 41.143C150.646 41.847 150.792 42.3897 151.027 42.771C151.291 43.1231 151.658 43.3577 152.127 43.4751C152.596 43.5924 153.257 43.6804 154.107 43.7391V45.2792H142.403V43.7391C143.253 43.7098 143.928 43.6364 144.427 43.5191C144.925 43.3724 145.307 43.1231 145.571 42.771C145.835 42.419 145.996 41.9203 146.055 41.275C146.143 40.6003 146.187 39.7055 146.187 38.5908V33.4425C146.187 31.4478 146.157 29.893 146.099 28.7783C146.069 27.6636 145.923 26.8422 145.659 26.3141C145.424 25.7861 145.043 25.4781 144.515 25.3901C143.987 25.2728 143.253 25.2141 142.315 25.2141V23.674L150.015 22.0019L150.631 27.4582H150.807C151.188 26.5782 151.658 25.7715 152.215 25.0381C152.802 24.3047 153.433 23.6887 154.107 23.19C154.782 22.6619 155.486 22.2513 156.219 21.9579C156.953 21.6646 157.701 21.5179 158.463 21.5179C159.402 21.5179 160.136 21.7526 160.664 22.2219C161.221 22.6619 161.5 23.2633 161.5 24.026C161.5 24.7301 161.28 25.2874 160.84 25.6981C160.4 26.0795 159.769 26.2701 158.947 26.2701C158.478 26.2701 158.082 26.2115 157.759 26.0941C157.437 25.9768 157.143 25.8595 156.879 25.7421C156.645 25.5954 156.41 25.4634 156.175 25.3461C155.97 25.2288 155.735 25.1701 155.471 25.1701C154.679 25.1701 153.887 25.6834 153.095 26.7102C152.303 27.7076 151.687 28.9836 151.247 30.5384C151.012 31.3891 150.822 32.3571 150.675 33.4425C150.558 34.4986 150.499 35.6133 150.499 36.7867V38.2828ZM177.717 32.2545C176.045 32.8998 174.622 33.5305 173.449 34.1466C172.305 34.7626 171.381 35.3786 170.677 35.9947C169.973 36.6107 169.459 37.2267 169.137 37.8428C168.843 38.4588 168.697 39.0895 168.697 39.7349C168.697 40.7029 169.019 41.495 169.665 42.111C170.31 42.727 171.161 43.0351 172.217 43.0351C172.98 43.0351 173.684 42.8444 174.329 42.463C175.004 42.0817 175.59 41.5683 176.089 40.9229C176.588 40.2482 176.984 39.4709 177.277 38.5908C177.571 37.6814 177.717 36.728 177.717 35.7307V32.2545ZM177.717 30.3624V28.5583C177.717 24.9794 176.192 23.19 173.141 23.19C172.642 23.19 172.217 23.234 171.865 23.322C171.513 23.41 171.22 23.5567 170.985 23.762C170.75 23.9674 170.53 24.2607 170.325 24.6421C170.149 25.0234 169.973 25.4928 169.797 26.0501C169.474 26.9008 169.151 27.4729 168.829 27.7662C168.535 28.0302 168.095 28.1622 167.509 28.1622C166.042 28.1622 165.309 27.4289 165.309 25.9621C165.309 24.5541 166.057 23.4687 167.553 22.706C169.049 21.9139 171.176 21.5179 173.933 21.5179C176.867 21.5179 178.949 22.0459 180.181 23.102C181.413 24.1287 182.029 25.8888 182.029 28.3823V38.2388C182.029 41.583 182.69 43.2551 184.01 43.2551C184.42 43.2551 184.816 43.2111 185.198 43.1231C185.579 43.0057 185.902 42.727 186.166 42.287L186.782 43.3431C186.43 44.0178 185.784 44.5898 184.846 45.0592C183.907 45.4992 182.924 45.7192 181.897 45.7192C180.607 45.7192 179.639 45.3085 178.993 44.4871C178.377 43.6658 178.069 42.507 178.069 41.0109H177.849C177.087 42.4484 176.03 43.5924 174.681 44.4431C173.332 45.2645 171.836 45.6752 170.193 45.6752C168.345 45.6752 166.893 45.2058 165.837 44.2671C164.781 43.3284 164.253 42.067 164.253 40.4829C164.253 39.7789 164.37 39.1042 164.605 38.4588C164.869 37.8134 165.279 37.1974 165.837 36.6107C166.394 36.024 167.127 35.452 168.037 34.8946C168.946 34.3079 170.061 33.7212 171.381 33.1345L177.717 30.3624ZM199.442 35.8187C200.674 35.8187 201.627 35.2613 202.302 34.1466C203.006 33.0318 203.358 31.4624 203.358 29.4383C203.358 27.4435 203.006 25.9035 202.302 24.8181C201.627 23.7033 200.659 23.146 199.398 23.146C198.136 23.146 197.124 23.7033 196.362 24.8181C195.628 25.9328 195.261 27.4582 195.261 29.3943C195.261 31.3304 195.643 32.8852 196.406 34.0586C197.168 35.232 198.18 35.8187 199.442 35.8187ZM197.022 40.9669C197.726 41.0256 198.371 41.0843 198.958 41.143C199.544 41.2016 200.116 41.2603 200.674 41.319C201.26 41.3776 201.833 41.451 202.39 41.539C202.977 41.627 203.607 41.715 204.282 41.803C206.394 42.1257 208.081 42.947 209.342 44.2671C210.633 45.5579 211.278 47.1859 211.278 49.1514C211.278 51.6155 210.296 53.493 208.33 54.7837C206.394 56.0744 203.578 56.7198 199.882 56.7198C198.239 56.7198 196.728 56.5731 195.349 56.2798C194 55.9864 192.841 55.5611 191.873 55.0037C190.905 54.4757 190.143 53.8303 189.585 53.0676C189.057 52.3049 188.793 51.4688 188.793 50.5595C188.793 49.9434 188.896 49.3714 189.101 48.8434C189.307 48.3153 189.585 47.846 189.937 47.4353C190.289 47.0539 190.7 46.7459 191.169 46.5112C191.668 46.2766 192.181 46.1592 192.709 46.1592C193.707 46.1592 194.601 46.4672 195.393 47.0833C194.601 47.2593 193.956 47.6846 193.457 48.3593C192.959 49.0634 192.709 49.8554 192.709 50.7355C192.709 52.0262 193.34 53.0236 194.601 53.7276C195.892 54.4317 197.711 54.7837 200.058 54.7837C205.074 54.7837 207.582 53.2436 207.582 50.1634C207.582 48.99 207.186 48.0073 206.394 47.2153C205.602 46.4526 204.663 45.9979 203.578 45.8512C202.874 45.7632 202.141 45.6605 201.378 45.5432C200.644 45.4552 199.911 45.3672 199.178 45.2792C198.474 45.1912 197.814 45.1178 197.198 45.0592C196.582 45.0005 196.083 44.9418 195.702 44.8832C194.059 44.7071 192.812 44.2671 191.961 43.5631C191.111 42.859 190.685 41.891 190.685 40.6589C190.685 39.6322 191.111 38.7228 191.961 37.9308C192.812 37.1387 193.883 36.64 195.173 36.4347V36.2587C194.528 35.9947 193.927 35.628 193.369 35.1586C192.812 34.6599 192.328 34.1026 191.917 33.4865C191.536 32.8705 191.228 32.2105 190.993 31.5064C190.759 30.7731 190.641 30.025 190.641 29.2623C190.641 28.1476 190.847 27.1209 191.257 26.1821C191.697 25.2434 192.299 24.4367 193.061 23.762C193.853 23.058 194.777 22.5153 195.834 22.1339C196.89 21.7232 198.048 21.5179 199.31 21.5179C200.6 21.5179 201.818 21.7232 202.962 22.1339C204.106 22.5153 205.089 23.0873 205.91 23.85C206.907 23.0286 207.788 22.4419 208.55 22.0899C209.313 21.7086 210.032 21.5179 210.706 21.5179C211.762 21.5179 212.598 21.7672 213.214 22.2659C213.86 22.7353 214.183 23.3807 214.183 24.202C214.183 24.7007 214.007 25.0967 213.654 25.3901C213.332 25.6834 212.921 25.8301 212.422 25.8301C212.012 25.8301 211.674 25.7568 211.41 25.6101C211.146 25.4634 210.897 25.3168 210.662 25.1701C210.457 24.9941 210.237 24.8327 210.002 24.6861C209.768 24.5394 209.474 24.466 209.122 24.466C208.418 24.466 207.699 24.7154 206.966 25.2141C207.67 26.2995 208.022 27.6636 208.022 29.3063C208.022 31.7998 207.245 33.7652 205.69 35.2026C204.135 36.6107 201.803 37.4321 198.694 37.6668C196.904 37.8134 195.658 38.0041 194.953 38.2388C194.249 38.4735 193.897 38.8988 193.897 39.5149C193.897 39.9842 194.161 40.3362 194.689 40.5709C195.217 40.7763 195.995 40.9083 197.022 40.9669ZM228.472 21.5179C230.144 21.5179 231.728 21.8259 233.225 22.4419C234.721 23.0286 236.026 23.85 237.141 24.9061C238.285 25.9621 239.18 27.2235 239.825 28.6903C240.5 30.1277 240.837 31.7118 240.837 33.4425C240.837 35.232 240.5 36.8747 239.825 38.3708C239.18 39.8669 238.285 41.1576 237.141 42.243C236.026 43.3284 234.721 44.1791 233.225 44.7951C231.728 45.4112 230.144 45.7192 228.472 45.7192C226.83 45.7192 225.26 45.4258 223.764 44.8392C222.297 44.2231 221.007 43.3724 219.892 42.287C218.777 41.2016 217.897 39.9109 217.252 38.4148C216.606 36.8894 216.284 35.232 216.284 33.4425C216.284 31.7118 216.606 30.113 217.252 28.6463C217.897 27.1795 218.777 25.9181 219.892 24.8621C221.007 23.806 222.297 22.9846 223.764 22.3979C225.26 21.8112 226.83 21.5179 228.472 21.5179ZM228.472 23.63C227.387 23.63 226.39 23.8647 225.48 24.334C224.6 24.8034 223.837 25.4781 223.192 26.3581C222.576 27.2089 222.092 28.2503 221.74 29.4823C221.417 30.685 221.256 32.0198 221.256 33.4865C221.256 35.012 221.417 36.3907 221.74 37.6228C222.092 38.8548 222.576 39.9109 223.192 40.7909C223.837 41.6416 224.6 42.3017 225.48 42.771C226.36 43.2404 227.358 43.4751 228.472 43.4751C229.587 43.4751 230.599 43.2404 231.508 42.771C232.418 42.3017 233.195 41.627 233.841 40.7469C234.486 39.8669 234.985 38.8108 235.337 37.5788C235.689 36.3467 235.865 34.9826 235.865 33.4865C235.865 32.0198 235.689 30.685 235.337 29.4823C234.985 28.2796 234.486 27.2529 233.841 26.4022C233.195 25.5221 232.418 24.8474 231.508 24.378C230.599 23.8793 229.587 23.63 228.472 23.63Z" fill="#236668"/>
<path d="M109.65 72.5057C110.003 72.9816 110.389 73.3168 110.807 73.5115C111.225 73.7061 111.694 73.8035 112.213 73.8035C113.236 73.8035 114.022 73.4394 114.57 72.7112C115.118 71.983 115.392 70.9448 115.392 69.5966C115.392 68.8828 115.327 68.27 115.198 67.7581C115.075 67.2462 114.895 66.8281 114.657 66.5036C114.419 66.172 114.127 65.9304 113.781 65.779C113.435 65.6276 113.042 65.5519 112.602 65.5519C111.975 65.5519 111.423 65.6961 110.947 65.9845C110.479 66.2729 110.046 66.6803 109.65 67.2066V72.5057ZM109.552 65.8872C110.014 65.3176 110.547 64.8598 111.153 64.5137C111.758 64.1677 112.451 63.9946 113.229 63.9946C113.864 63.9946 114.437 64.1172 114.949 64.3623C115.461 64.6003 115.897 64.9571 116.257 65.433C116.618 65.9016 116.895 66.4856 117.09 67.1849C117.285 67.8843 117.382 68.6882 117.382 69.5966C117.382 70.4041 117.274 71.1575 117.058 71.8568C116.841 72.549 116.528 73.151 116.117 73.6629C115.713 74.1676 115.216 74.5677 114.624 74.8633C114.04 75.1517 113.381 75.2959 112.645 75.2959C111.975 75.2959 111.398 75.1841 110.915 74.9606C110.439 74.7299 110.017 74.4127 109.65 74.0089V78.8539H107.714V64.1893H108.871C109.145 64.1893 109.314 64.3227 109.379 64.5894L109.552 65.8872ZM130.004 65.9953C129.917 66.1539 129.784 66.2333 129.604 66.2333C129.495 66.2333 129.373 66.1936 129.236 66.1143C129.099 66.035 128.929 65.9485 128.728 65.8547C128.533 65.7538 128.299 65.6637 128.025 65.5844C127.751 65.4979 127.426 65.4546 127.051 65.4546C126.727 65.4546 126.435 65.4979 126.175 65.5844C125.916 65.6637 125.692 65.7754 125.505 65.9196C125.325 66.0638 125.184 66.2333 125.083 66.4279C124.989 66.6154 124.942 66.8208 124.942 67.0443C124.942 67.3255 125.022 67.5598 125.18 67.7473C125.346 67.9347 125.562 68.097 125.829 68.234C126.096 68.3709 126.399 68.4935 126.738 68.6016C127.077 68.7026 127.423 68.8143 127.776 68.9369C128.136 69.0523 128.486 69.182 128.825 69.3262C129.164 69.4704 129.467 69.6507 129.733 69.867C130 70.0832 130.213 70.35 130.371 70.6672C130.537 70.9773 130.62 71.3522 130.62 71.792C130.62 72.2966 130.53 72.7653 130.35 73.1978C130.17 73.6232 129.903 73.9945 129.549 74.3117C129.196 74.6218 128.764 74.8669 128.252 75.0471C127.74 75.2274 127.149 75.3175 126.478 75.3175C125.714 75.3175 125.022 75.1949 124.402 74.9498C123.782 74.6975 123.255 74.3766 122.823 73.9873L123.277 73.2519C123.335 73.1582 123.403 73.0861 123.482 73.0356C123.562 72.9852 123.663 72.9599 123.785 72.9599C123.915 72.9599 124.052 73.0104 124.196 73.1113C124.34 73.2123 124.513 73.324 124.715 73.4466C124.924 73.5691 125.177 73.6809 125.472 73.7818C125.768 73.8828 126.136 73.9332 126.575 73.9332C126.95 73.9332 127.278 73.8864 127.56 73.7926C127.841 73.6917 128.075 73.5583 128.263 73.3925C128.45 73.2267 128.587 73.0356 128.673 72.8193C128.767 72.603 128.814 72.3723 128.814 72.1272C128.814 71.8244 128.731 71.5757 128.565 71.381C128.407 71.1791 128.194 71.0097 127.927 70.8727C127.661 70.7285 127.354 70.606 127.008 70.505C126.669 70.3969 126.32 70.2851 125.959 70.1698C125.606 70.0544 125.256 69.9246 124.91 69.7804C124.571 69.629 124.268 69.4416 124.002 69.2181C123.735 68.9946 123.519 68.7206 123.353 68.3962C123.194 68.0645 123.115 67.6644 123.115 67.1958C123.115 66.7776 123.201 66.3775 123.374 65.9953C123.547 65.606 123.8 65.2672 124.131 64.9788C124.463 64.6832 124.87 64.4489 125.353 64.2758C125.836 64.1028 126.388 64.0163 127.008 64.0163C127.729 64.0163 128.374 64.1316 128.944 64.3623C129.521 64.5858 130.018 64.8959 130.436 65.2924L130.004 65.9953ZM138.798 64.1893V75.1445H136.873V64.1893H138.798ZM139.209 60.7503C139.209 60.9377 139.17 61.1144 139.09 61.2802C139.018 61.4388 138.917 61.583 138.788 61.7128C138.665 61.8353 138.517 61.9327 138.344 62.0048C138.178 62.0769 138.002 62.1129 137.814 62.1129C137.627 62.1129 137.45 62.0769 137.284 62.0048C137.126 61.9327 136.985 61.8353 136.863 61.7128C136.74 61.583 136.643 61.4388 136.571 61.2802C136.499 61.1144 136.463 60.9377 136.463 60.7503C136.463 60.5628 136.499 60.3862 136.571 60.2203C136.643 60.0473 136.74 59.8995 136.863 59.777C136.985 59.6472 137.126 59.5462 137.284 59.4741C137.45 59.402 137.627 59.366 137.814 59.366C138.002 59.366 138.178 59.402 138.344 59.4741C138.517 59.5462 138.665 59.6472 138.788 59.777C138.917 59.8995 139.018 60.0473 139.09 60.2203C139.17 60.3862 139.209 60.5628 139.209 60.7503ZM153.371 66.1359C153.313 66.2152 153.255 66.2765 153.198 66.3198C153.14 66.363 153.061 66.3847 152.96 66.3847C152.852 66.3847 152.733 66.3414 152.603 66.2549C152.473 66.1612 152.311 66.0602 152.116 65.9521C151.929 65.8439 151.695 65.7466 151.413 65.6601C151.139 65.5664 150.801 65.5195 150.397 65.5195C149.856 65.5195 149.38 65.6168 148.969 65.8115C148.558 65.9989 148.212 66.2729 147.931 66.6334C147.657 66.9939 147.448 67.4301 147.304 67.942C147.167 68.4538 147.098 69.027 147.098 69.6615C147.098 70.3248 147.174 70.916 147.325 71.4351C147.477 71.947 147.69 72.3795 147.963 72.7328C148.245 73.0789 148.58 73.3456 148.969 73.5331C149.366 73.7133 149.809 73.8035 150.299 73.8035C150.768 73.8035 151.154 73.7494 151.457 73.6412C151.759 73.5259 152.008 73.3997 152.203 73.2627C152.405 73.1257 152.571 73.0032 152.7 72.895C152.837 72.7797 152.971 72.722 153.1 72.722C153.259 72.722 153.382 72.7833 153.468 72.9059L154.009 73.6088C153.771 73.9044 153.501 74.1567 153.198 74.3658C152.895 74.5749 152.567 74.7515 152.214 74.8957C151.868 75.0327 151.503 75.1337 151.121 75.1985C150.739 75.2634 150.35 75.2959 149.953 75.2959C149.268 75.2959 148.63 75.1697 148.039 74.9174C147.455 74.665 146.947 74.3009 146.514 73.8251C146.082 73.342 145.743 72.7508 145.498 72.0515C145.253 71.3522 145.13 70.5555 145.13 69.6615C145.13 68.8468 145.242 68.0934 145.465 67.4012C145.696 66.7091 146.028 66.1143 146.46 65.6168C146.9 65.1121 147.437 64.7192 148.072 64.438C148.713 64.1569 149.449 64.0163 150.278 64.0163C151.049 64.0163 151.727 64.1424 152.311 64.3948C152.902 64.6399 153.425 64.9896 153.879 65.4438L153.371 66.1359ZM164.288 64.0163C165.088 64.0163 165.809 64.1496 166.451 64.4164C167.093 64.6832 167.641 65.0617 168.095 65.5519C168.549 66.0422 168.895 66.637 169.133 67.3363C169.378 68.0285 169.501 68.8035 169.501 69.6615C169.501 70.5266 169.378 71.3053 169.133 71.9974C168.895 72.6896 168.549 73.2808 168.095 73.771C167.641 74.2613 167.093 74.6398 166.451 74.9065C165.809 75.1661 165.088 75.2959 164.288 75.2959C163.481 75.2959 162.752 75.1661 162.104 74.9065C161.462 74.6398 160.914 74.2613 160.46 73.771C160.006 73.2808 159.656 72.6896 159.411 71.9974C159.173 71.3053 159.054 70.5266 159.054 69.6615C159.054 68.8035 159.173 68.0285 159.411 67.3363C159.656 66.637 160.006 66.0422 160.46 65.5519C160.914 65.0617 161.462 64.6832 162.104 64.4164C162.752 64.1496 163.481 64.0163 164.288 64.0163ZM164.288 73.7926C165.37 73.7926 166.177 73.4322 166.711 72.7112C167.244 71.983 167.511 70.97 167.511 69.6723C167.511 68.3673 167.244 67.3508 166.711 66.6226C166.177 65.8944 165.37 65.5303 164.288 65.5303C163.74 65.5303 163.261 65.624 162.85 65.8115C162.446 65.9989 162.107 66.2693 161.833 66.6226C161.566 66.9759 161.365 67.412 161.228 67.9311C161.098 68.443 161.033 69.0234 161.033 69.6723C161.033 70.97 161.3 71.983 161.833 72.7112C162.374 73.4322 163.192 73.7926 164.288 73.7926ZM177.717 59.2146V75.1445H175.792V59.2146H177.717ZM189.242 64.0163C190.042 64.0163 190.763 64.1496 191.405 64.4164C192.046 64.6832 192.594 65.0617 193.049 65.5519C193.503 66.0422 193.849 66.637 194.087 67.3363C194.332 68.0285 194.455 68.8035 194.455 69.6615C194.455 70.5266 194.332 71.3053 194.087 71.9974C193.849 72.6896 193.503 73.2808 193.049 73.771C192.594 74.2613 192.046 74.6398 191.405 74.9065C190.763 75.1661 190.042 75.2959 189.242 75.2959C188.434 75.2959 187.706 75.1661 187.057 74.9065C186.416 74.6398 185.868 74.2613 185.414 73.771C184.959 73.2808 184.61 72.6896 184.365 71.9974C184.127 71.3053 184.008 70.5266 184.008 69.6615C184.008 68.8035 184.127 68.0285 184.365 67.3363C184.61 66.637 184.959 66.0422 185.414 65.5519C185.868 65.0617 186.416 64.6832 187.057 64.4164C187.706 64.1496 188.434 64.0163 189.242 64.0163ZM189.242 73.7926C190.323 73.7926 191.131 73.4322 191.664 72.7112C192.198 71.983 192.465 70.97 192.465 69.6723C192.465 68.3673 192.198 67.3508 191.664 66.6226C191.131 65.8944 190.323 65.5303 189.242 65.5303C188.694 65.5303 188.215 65.624 187.804 65.8115C187.4 65.9989 187.061 66.2693 186.787 66.6226C186.52 66.9759 186.318 67.412 186.181 67.9311C186.052 68.443 185.987 69.0234 185.987 69.6723C185.987 70.97 186.253 71.983 186.787 72.7112C187.328 73.4322 188.146 73.7926 189.242 73.7926ZM204.435 69.7913C204.825 69.7913 205.167 69.7372 205.463 69.629C205.758 69.5209 206.007 69.3695 206.209 69.1748C206.411 68.9802 206.562 68.7494 206.663 68.4827C206.764 68.2087 206.815 67.9095 206.815 67.5851C206.815 66.9146 206.609 66.3811 206.198 65.9845C205.794 65.588 205.207 65.3897 204.435 65.3897C203.657 65.3897 203.062 65.588 202.651 65.9845C202.247 66.3811 202.045 66.9146 202.045 67.5851C202.045 67.9095 202.096 68.2087 202.197 68.4827C202.305 68.7494 202.46 68.9802 202.662 69.1748C202.864 69.3695 203.112 69.5209 203.408 69.629C203.704 69.7372 204.046 69.7913 204.435 69.7913ZM207.907 75.7393C207.907 75.4725 207.831 75.2562 207.68 75.0904C207.528 74.9246 207.323 74.7948 207.063 74.7011C206.811 74.6073 206.515 74.5425 206.177 74.5064C205.838 74.4632 205.477 74.4307 205.095 74.4091C204.72 74.3874 204.338 74.3658 203.949 74.3442C203.559 74.3226 203.184 74.2865 202.824 74.236C202.42 74.4235 202.089 74.6614 201.829 74.9498C201.577 75.231 201.451 75.5626 201.451 75.9447C201.451 76.1899 201.512 76.417 201.634 76.6261C201.764 76.8424 201.959 77.0262 202.218 77.1776C202.478 77.3362 202.802 77.4588 203.192 77.5453C203.588 77.639 204.053 77.6859 204.587 77.6859C205.106 77.6859 205.571 77.639 205.982 77.5453C206.393 77.4516 206.739 77.3182 207.02 77.1452C207.308 76.9721 207.528 76.7667 207.68 76.5287C207.831 76.2908 207.907 76.0277 207.907 75.7393ZM209.864 64.6219V65.3356C209.864 65.5736 209.713 65.725 209.41 65.7899L208.166 65.9521C208.412 66.4279 208.534 66.9542 208.534 67.531C208.534 68.0645 208.43 68.5512 208.22 68.991C208.019 69.4236 207.737 69.7949 207.377 70.1049C207.016 70.4149 206.584 70.6528 206.079 70.8186C205.575 70.9845 205.027 71.0674 204.435 71.0674C203.923 71.0674 203.44 71.0061 202.986 70.8835C202.756 71.0277 202.579 71.1827 202.456 71.3486C202.334 71.5072 202.272 71.6694 202.272 71.8352C202.272 72.0948 202.377 72.293 202.586 72.43C202.802 72.5598 203.084 72.6535 203.43 72.7112C203.776 72.7689 204.169 72.8049 204.608 72.8193C205.055 72.8338 205.51 72.859 205.971 72.895C206.44 72.9239 206.894 72.9779 207.334 73.0573C207.781 73.1366 208.177 73.2663 208.523 73.4466C208.869 73.6268 209.147 73.8756 209.356 74.1928C209.572 74.51 209.68 74.921 209.68 75.4256C209.68 75.8943 209.561 76.3485 209.324 76.7883C209.093 77.2281 208.758 77.6174 208.318 77.9563C207.878 78.3023 207.337 78.5763 206.696 78.7782C206.061 78.9873 205.344 79.0918 204.544 79.0918C203.743 79.0918 203.044 79.0125 202.445 78.8539C201.847 78.6953 201.35 78.4826 200.953 78.2158C200.557 77.9491 200.257 77.639 200.055 77.2858C199.861 76.9397 199.763 76.5756 199.763 76.1935C199.763 75.6528 199.933 75.1949 200.272 74.82C200.611 74.4451 201.076 74.1459 201.667 73.9224C201.342 73.7782 201.083 73.5872 200.888 73.3492C200.701 73.1041 200.607 72.7761 200.607 72.3651C200.607 72.2065 200.636 72.0443 200.694 71.8785C200.751 71.7054 200.838 71.536 200.953 71.3702C201.076 71.1971 201.223 71.0349 201.396 70.8835C201.57 70.7321 201.771 70.5987 202.002 70.4834C201.461 70.1806 201.04 69.7804 200.737 69.283C200.434 68.7783 200.283 68.1943 200.283 67.531C200.283 66.9975 200.384 66.5144 200.585 66.0819C200.794 65.6421 201.083 65.2708 201.451 64.9679C201.818 64.6579 202.254 64.42 202.759 64.2542C203.271 64.0884 203.83 64.0055 204.435 64.0055C204.911 64.0055 205.355 64.0595 205.766 64.1677C206.177 64.2686 206.551 64.42 206.89 64.6219H209.864ZM217.684 64.1893V75.1445H215.748V64.1893H217.684ZM219.912 59.4741L217.392 62.2643C217.291 62.3725 217.19 62.4518 217.089 62.5022C216.995 62.5455 216.873 62.5671 216.721 62.5671H215.575L217.176 59.95C217.277 59.7842 217.385 59.6652 217.5 59.5931C217.623 59.5138 217.799 59.4741 218.03 59.4741H219.912ZM230.558 70.213C229.672 70.2419 228.915 70.314 228.287 70.4293C227.667 70.5375 227.159 70.6817 226.762 70.8619C226.373 71.0421 226.088 71.2548 225.908 71.5C225.735 71.7451 225.649 72.0191 225.649 72.3219C225.649 72.6103 225.695 72.859 225.789 73.0681C225.883 73.2772 226.009 73.4502 226.168 73.5872C226.333 73.7169 226.524 73.8143 226.741 73.8792C226.964 73.9368 227.202 73.9657 227.455 73.9657C227.793 73.9657 228.103 73.9332 228.385 73.8683C228.666 73.7963 228.929 73.6953 229.174 73.5655C229.426 73.4358 229.664 73.2808 229.888 73.1005C230.119 72.9203 230.342 72.7148 230.558 72.4841V70.213ZM224.34 65.7358C224.946 65.1518 225.598 64.7156 226.297 64.4272C226.997 64.1388 227.772 63.9946 228.623 63.9946C229.235 63.9946 229.78 64.0956 230.256 64.2974C230.731 64.4993 231.132 64.7805 231.456 65.141C231.78 65.5015 232.026 65.9377 232.191 66.4495C232.357 66.9614 232.44 67.5238 232.44 68.1366V75.1445H231.586C231.398 75.1445 231.254 75.1156 231.153 75.058C231.052 74.9931 230.973 74.8705 230.915 74.6903L230.699 73.6521C230.411 73.9188 230.129 74.1567 229.855 74.3658C229.581 74.5677 229.293 74.7407 228.99 74.8849C228.687 75.0219 228.363 75.1264 228.017 75.1985C227.678 75.2779 227.3 75.3175 226.881 75.3175C226.456 75.3175 226.056 75.2598 225.681 75.1445C225.306 75.0219 224.978 74.8417 224.697 74.6037C224.423 74.3658 224.203 74.0666 224.037 73.7061C223.879 73.3384 223.799 72.9059 223.799 72.4084C223.799 71.9758 223.918 71.5612 224.156 71.1647C224.394 70.761 224.78 70.4041 225.313 70.0941C225.847 69.784 226.543 69.5317 227.4 69.337C228.258 69.1352 229.311 69.0198 230.558 68.991V68.1366C230.558 67.2859 230.374 66.6442 230.007 66.2116C229.639 65.7718 229.102 65.5519 228.395 65.5519C227.92 65.5519 227.519 65.6132 227.195 65.7358C226.878 65.8511 226.6 65.9845 226.362 66.1359C226.132 66.2801 225.93 66.4135 225.757 66.5361C225.591 66.6514 225.425 66.7091 225.259 66.7091C225.129 66.7091 225.018 66.6767 224.924 66.6118C224.83 66.5397 224.751 66.4532 224.686 66.3522L224.34 65.7358Z" fill="#236668"/>
<path d="M0.604753 43.042C0.604752 48.6739 1.71404 54.2507 3.8693 59.454C6.02455 64.6572 9.18356 69.385 13.1659 73.3674C17.1483 77.3498 21.8761 80.5088 27.0794 82.664C32.2826 84.8193 37.8594 85.9286 43.4913 85.9286C49.1233 85.9286 54.7001 84.8193 59.9033 82.664C65.1066 80.5088 69.8344 77.3498 73.8167 73.3674C77.7991 69.385 80.9581 64.6572 83.1134 59.454C85.2686 54.2507 86.3779 48.6739 86.3779 43.042L43.4913 43.042L0.604753 43.042Z" fill="#236668"/>
<path d="M0.604752 43.042C0.604752 37.41 1.71404 31.8332 3.8693 26.63C6.02455 21.4268 9.18356 16.699 13.1659 12.7166C17.1483 8.7342 21.8761 5.57519 27.0794 3.41994C32.2826 1.26469 37.8594 0.155395 43.4913 0.155396C49.1233 0.155396 54.7001 1.26469 59.9033 3.41994C65.1066 5.5752 69.8344 8.7342 73.8167 12.7166C77.7991 16.699 80.9581 21.4268 83.1134 26.63C85.2686 31.8332 86.3779 37.41 86.3779 43.042L43.4913 43.042H0.604752Z" fill="#FDCC61"/>
<path d="M0.604622 43.0419C0.604622 40.2172 1.15927 37.4202 2.2369 34.8105C3.31452 32.2008 4.89402 29.8296 6.88522 27.8322C8.87641 25.8349 11.2403 24.2505 13.8419 23.1695C16.4435 22.0886 19.2319 21.5322 22.0479 21.5322C24.8639 21.5322 27.6523 22.0886 30.2539 23.1695C32.8555 24.2505 35.2194 25.8349 37.2106 27.8322C39.2018 29.8296 40.7813 32.2008 41.8589 34.8105C42.9366 37.4202 43.4912 40.2172 43.4912 43.0419L22.0479 43.0419H0.604622Z" fill="#D97BE7"/>
<path d="M86.3778 43.042C86.3778 45.8667 85.8232 48.6638 84.7455 51.2734C83.6679 53.8831 82.0884 56.2543 80.0972 58.2517C78.106 60.249 75.7421 61.8334 73.1405 62.9144C70.5389 63.9954 67.7505 64.5517 64.9345 64.5517C62.1185 64.5517 59.3301 63.9954 56.7285 62.9144C54.1269 61.8334 51.763 60.249 49.7718 58.2517C47.7806 56.2543 46.2011 53.8831 45.1235 51.2734C44.0459 48.6638 43.4912 45.8667 43.4912 43.042L64.9345 43.042L86.3778 43.042Z" fill="#5CBFC2"/>
</svg>
